<?xml version="1.0" standalone="no"?>
<!DOCTYPE svg PUBLIC "-//W3C//DTD SVG 20010904//EN"
 "http://www.w3.org/TR/2001/REC-SVG-20010904/DTD/svg10.dtd">
<svg version="1.0" xmlns="http://www.w3.org/2000/svg"
 width="1920.000000pt" height="1920.000000pt" viewBox="0 0 1920.000000 1920.000000"
 preserveAspectRatio="xMidYMid meet">
<metadata>
Created by potrace 1.14, written by Peter Selinger 2001-2017
</metadata>
<g transform="translate(0.000000,1920.000000) scale(0.100000,-0.100000)"
fill="#000000" stroke="none">
<path d="M3036 19167 c3 -10 9 -15 12 -12 3 3 0 11 -7 18 -10 9 -11 8 -5 -6z"/>
<path d="M18550 19116 c0 -2 8 -10 18 -17 15 -13 16 -12 3 4 -13 16 -21 21
-21 13z"/>
<path d="M10060 19106 c0 -2 8 -10 18 -17 15 -13 16 -12 3 4 -13 16 -21 21
-21 13z"/>
<path d="M19116 19047 c3 -10 9 -15 12 -12 3 3 0 11 -7 18 -10 9 -11 8 -5 -6z"/>
<path d="M13675 19040 c-3 -5 -1 -10 4 -10 6 0 11 5 11 10 0 6 -2 10 -4 10 -3
0 -8 -4 -11 -10z"/>
<path d="M10290 18961 c0 -6 4 -13 10 -16 6 -3 7 1 4 9 -7 18 -14 21 -14 7z"/>
<path d="M18986 18958 c3 -4 9 -8 15 -8 5 0 9 4 9 8 0 5 -7 9 -15 9 -8 0 -12
-4 -9 -9z"/>
<path d="M10233 18915 c0 -8 4 -12 9 -9 4 3 8 9 8 15 0 5 -4 9 -8 9 -5 0 -9
-7 -9 -15z"/>
<path d="M1273 18885 c0 -8 4 -12 9 -9 5 3 6 10 3 15 -9 13 -12 11 -12 -6z"/>
<path d="M8375 18891 c-3 -5 -2 -12 3 -15 5 -3 9 1 9 9 0 17 -3 19 -12 6z"/>
<path d="M10174 18886 c1 -8 5 -18 8 -22 4 -3 5 1 4 10 -1 8 -5 18 -8 22 -4 3
-5 -1 -4 -10z"/>
<path d="M12093 18885 c0 -8 4 -12 9 -9 5 3 6 10 3 15 -9 13 -12 11 -12 -6z"/>
<path d="M1916 18882 c-3 -5 1 -9 9 -9 8 0 12 4 9 9 -3 4 -7 8 -9 8 -2 0 -6
-4 -9 -8z"/>
<path d="M18356 18833 c-6 -14 -5 -15 5 -6 7 7 10 15 7 18 -3 3 -9 -2 -12 -12z"/>
<path d="M18230 18826 c0 -2 7 -7 16 -10 8 -3 12 -2 9 4 -6 10 -25 14 -25 6z"/>
<path d="M18656 18807 c3 -10 9 -15 12 -12 3 3 0 11 -7 18 -10 9 -11 8 -5 -6z"/>
<path d="M18370 18736 c0 -2 8 -10 18 -17 15 -13 16 -12 3 4 -13 16 -21 21
-21 13z"/>
<path d="M7666 18562 c-3 -5 1 -9 9 -9 8 0 12 4 9 9 -3 4 -7 8 -9 8 -2 0 -6
-4 -9 -8z"/>
<path d="M8991 18448 c25 -25 54 -59 65 -76 10 -18 21 -32 24 -32 3 0 6 -10 7
-22 1 -11 6 -24 10 -27 8 -6 9 -11 20 -61 9 -38 6 -120 -6 -164 -20 -81 -6
-119 106 -276 107 -149 109 -153 117 -178 7 -20 4 -22 -31 -23 -109 -2 -235
-8 -293 -15 -36 -4 -82 -7 -102 -8 -21 0 -38 -5 -38 -11 0 -5 -4 -3 -9 5 -6 8
-7 19 -5 25 3 5 -2 1 -10 -9 -17 -21 -22 -23 -106 -30 -30 -3 -77 -8 -105 -11
-27 -4 -63 -8 -80 -10 -16 -2 -41 -6 -54 -9 -18 -4 -31 2 -50 21 -14 15 -19
23 -11 18 13 -8 13 -7 0 11 -8 10 -17 21 -20 24 -3 3 -14 23 -26 45 -35 68
-65 120 -75 130 -5 5 -9 17 -9 27 0 10 -4 18 -9 18 -5 0 -12 9 -16 20 -3 11
-22 42 -41 69 -19 28 -34 54 -34 58 -1 14 -38 53 -50 53 -9 0 -10 -3 -1 -13 6
-8 12 -22 14 -33 8 -42 20 -80 30 -91 5 -7 7 -13 4 -13 -3 0 -1 -15 4 -32 5
-18 11 -46 14 -63 2 -16 7 -48 11 -70 8 -53 6 -163 -4 -218 -1 -5 -6 -6 -11
-3 -5 4 -11 2 -13 -3 -3 -9 -38 -19 -88 -25 -8 -2 -25 -6 -37 -10 -12 -4 -32
-9 -45 -12 -39 -9 -53 -12 -53 -14 0 -2 -14 -5 -52 -14 -12 -2 -56 -14 -99
-26 -42 -12 -87 -24 -100 -26 -13 -2 -35 -9 -49 -14 -23 -9 -26 -8 -21 7 3 10
8 32 12 48 4 17 14 40 21 52 14 21 14 21 -11 10 -14 -7 -26 -15 -26 -19 0 -5
-8 -8 -18 -8 -10 0 -22 -4 -27 -8 -10 -9 -106 -46 -115 -45 -3 1 -12 -3 -21
-8 -9 -4 -29 -10 -44 -13 -16 -3 -32 -11 -37 -18 -4 -7 -8 -10 -8 -6 0 8 -122
-42 -130 -53 -3 -3 -25 -17 -50 -29 -25 -13 -69 -38 -97 -56 -29 -19 -53 -32
-53 -30 0 3 -15 0 -32 -5 -18 -5 -49 -12 -68 -15 -120 -18 -471 -104 -610
-150 -47 -15 -89 -29 -95 -30 -18 -4 -110 -35 -130 -44 -11 -5 -56 -24 -100
-41 -44 -17 -91 -36 -105 -42 -14 -5 -28 -10 -32 -9 -5 1 -8 -2 -8 -8 0 -6 -3
-9 -7 -8 -11 4 -193 -85 -298 -144 -83 -48 -253 -155 -265 -168 -3 -3 -30 -23
-60 -45 -30 -22 -66 -50 -79 -64 l-24 -25 7 39 c4 22 13 46 19 54 7 8 11 15 9
15 -7 2 10 42 75 185 26 56 118 204 144 231 13 13 92 109 112 135 4 6 21 28
38 50 56 74 183 214 342 378 53 56 97 105 97 109 0 4 7 8 15 8 8 0 15 4 15 10
0 5 12 22 28 38 71 74 233 251 258 282 16 19 31 37 34 40 3 3 24 28 45 55 22
28 45 53 50 57 6 5 5 8 -4 8 -7 0 -70 -56 -140 -124 -69 -68 -148 -144 -175
-168 -109 -97 -214 -197 -263 -250 -23 -25 -44 -43 -47 -40 -3 3 -6 -2 -6 -12
0 -9 -4 -14 -10 -11 -5 3 -10 2 -10 -2 0 -5 -36 -46 -80 -92 -44 -45 -80 -87
-80 -93 0 -5 -4 -6 -10 -3 -5 3 -10 2 -10 -4 0 -9 -34 -50 -90 -110 -8 -9 -26
-32 -40 -51 -13 -19 -30 -39 -37 -43 -7 -4 -13 -15 -13 -22 0 -8 -3 -15 -7
-15 -5 0 -24 -24 -43 -52 -19 -29 -43 -62 -52 -72 -10 -11 -18 -23 -18 -27 0
-5 -12 -25 -26 -46 -33 -48 -97 -172 -101 -196 -2 -10 -11 -30 -20 -44 -10
-15 -17 -27 -15 -28 2 0 1 -7 -2 -15 -35 -108 -44 -141 -45 -167 -1 -7 -20
-25 -43 -40 -24 -15 -46 -32 -50 -38 -5 -6 -8 -6 -8 -1 0 6 -5 5 -12 -2 -25
-25 -25 -10 -1 56 13 37 27 76 30 87 4 11 10 23 15 26 5 3 11 15 12 25 2 10
10 18 17 16 8 -2 11 0 7 4 -4 4 -3 13 3 21 6 7 8 13 4 13 -4 0 4 11 19 25 15
14 25 25 22 25 -2 0 18 43 45 95 49 96 52 115 10 71 -13 -14 -29 -22 -37 -19
-8 3 -14 1 -14 -3 0 -5 -13 -15 -28 -22 -16 -7 -61 -44 -100 -82 -60 -60 -75
-70 -101 -68 -17 1 -31 8 -31 15 0 23 -2 28 -13 42 -6 7 -10 25 -9 40 1 14 -4
44 -12 65 -12 35 -12 42 1 55 14 13 13 17 -7 33 -20 16 -21 22 -12 43 10 21 8
27 -9 39 -12 8 -18 19 -14 25 3 6 -1 11 -9 11 -9 0 -16 4 -16 10 0 5 -3 9 -7
9 -31 -5 -50 29 -29 52 8 9 8 10 -1 5 -6 -3 -16 1 -21 10 -10 17 -80 26 -99
12 -7 -6 -17 1 -29 21 -10 16 -21 28 -26 25 -4 -3 -8 5 -8 17 0 22 0 22 -14 4
-8 -11 -12 -23 -10 -27 2 -3 -1 -19 -7 -35 -6 -15 -15 -37 -19 -48 -4 -11 -13
-33 -19 -48 -6 -16 -9 -33 -6 -38 4 -5 1 -9 -5 -9 -6 0 -10 -8 -9 -17 1 -10 0
-25 -3 -33 -21 -62 -25 -79 -24 -103 1 -15 -2 -27 -7 -27 -4 0 -7 -6 -6 -12 1
-7 -2 -31 -6 -53 -5 -22 -8 -46 -7 -52 2 -7 -2 -13 -8 -13 -5 0 -9 -3 -8 -7 1
-5 -2 -37 -7 -73 -4 -36 -9 -72 -10 -80 -1 -8 -6 -51 -10 -95 -4 -44 -9 -93
-11 -110 -6 -44 -5 -356 1 -384 3 -16 -4 -32 -23 -52 -32 -35 -51 -37 -53 -6
-5 65 -5 463 -1 471 2 4 6 31 8 60 2 28 6 78 9 111 3 33 7 83 10 110 2 28 5
50 6 50 1 0 2 18 3 41 2 22 5 45 8 50 2 5 6 25 7 44 3 45 9 85 11 85 2 0 3 11
4 25 1 14 5 31 9 38 5 6 5 17 2 22 -4 6 -1 17 5 25 7 8 10 22 6 30 -3 8 -1 15
5 15 6 0 7 5 4 10 -3 6 -3 16 1 22 5 7 9 19 10 28 3 19 9 39 18 65 4 11 11 29
15 40 4 11 7 29 7 40 -1 11 3 23 8 26 5 4 8 18 9 33 0 14 4 26 9 26 5 0 8 6 5
13 -2 6 2 27 10 44 7 18 14 36 14 40 1 5 3 13 4 18 10 34 18 71 17 78 -1 4 2
7 8 7 5 0 7 6 4 14 -3 8 -1 17 5 21 6 3 11 13 11 21 0 20 70 167 84 176 6 4 7
8 3 8 -5 0 1 13 12 29 12 16 21 32 21 35 0 3 16 30 35 61 20 30 36 58 37 62 1
5 6 13 12 20 16 18 27 33 66 88 19 27 40 56 48 65 49 56 72 87 72 98 0 7 4 10
10 7 6 -3 10 1 10 10 0 9 4 14 9 10 5 -3 12 3 16 14 3 11 12 22 20 25 8 3 15
10 15 15 0 6 19 29 43 52 l42 41 -72 -38 c-39 -21 -69 -42 -67 -46 3 -4 -1 -5
-9 -2 -8 3 -20 -2 -27 -11 -7 -8 -16 -15 -20 -15 -13 0 -153 -89 -162 -102 -4
-7 -8 -10 -8 -5 0 4 -22 -8 -49 -27 -27 -19 -52 -32 -55 -29 -3 4 -6 2 -6 -4
0 -9 -75 -65 -89 -67 -3 -1 -19 -13 -35 -28 -17 -15 -33 -26 -36 -26 -3 1 -21
-12 -40 -30 -19 -17 -73 -64 -120 -104 -47 -40 -91 -81 -98 -90 -7 -10 -17
-16 -22 -13 -5 3 -13 -3 -19 -12 -6 -10 -11 -14 -11 -10 0 9 -60 -31 -72 -48
-5 -6 -8 -6 -8 0 0 7 -3 7 -8 0 -4 -6 -38 -35 -77 -66 -173 -139 -282 -272
-382 -467 -42 -82 -100 -232 -109 -282 -3 -14 -9 -39 -15 -56 -10 -31 -19 -81
-22 -119 -1 -11 -5 -23 -10 -26 -4 -3 -8 -38 -10 -77 -1 -40 -5 -72 -8 -72 -6
0 -7 -31 -12 -257 -1 -84 0 -153 3 -153 3 0 6 -19 6 -43 1 -48 13 -144 20
-168 2 -10 6 -30 8 -45 2 -16 13 -58 25 -94 11 -36 23 -81 26 -100 10 -65 17
-115 18 -127 0 -7 3 -13 7 -13 3 0 5 -15 4 -32 -2 -50 -3 -51 -19 -38 -8 7
-13 16 -10 20 3 5 0 10 -5 12 -6 2 -13 10 -14 18 -7 31 -31 80 -39 80 -4 0 -5
5 -2 10 3 6 1 10 -4 10 -6 0 -10 3 -9 8 1 4 -3 18 -9 32 -6 14 -10 27 -10 30
0 3 -10 24 -22 48 -12 23 -19 42 -17 42 3 0 -2 16 -10 35 -8 20 -12 40 -9 45
3 5 1 11 -4 14 -4 3 -8 17 -8 32 0 14 -4 29 -9 33 -5 3 -10 19 -12 36 -2 16
-7 32 -11 35 -3 3 -7 12 -7 20 0 8 -5 40 -12 70 -6 30 -13 69 -16 85 -2 17 -5
31 -6 33 -2 1 -3 5 -4 10 -14 60 -19 89 -17 96 1 4 -4 14 -10 22 -6 8 -8 14
-5 14 4 0 2 8 -3 18 -5 9 -11 31 -14 47 -3 17 -10 42 -15 56 -6 15 -8 30 -5
33 4 3 2 6 -3 6 -5 0 -10 8 -11 19 -1 10 -13 53 -27 95 -15 43 -28 87 -30 99
-3 12 -5 22 -6 22 -2 0 -14 49 -24 105 -19 99 -24 125 -26 125 -2 0 -9 56 -13
100 -1 17 -5 35 -8 40 -7 12 -3 297 5 345 5 33 9 53 21 100 3 11 7 30 10 41
16 76 131 310 178 363 9 11 17 26 17 33 0 7 4 13 8 13 4 0 16 14 26 30 9 17
27 41 39 54 86 94 128 157 68 101 -101 -93 -131 -124 -131 -133 0 -6 -4 -12
-8 -14 -10 -4 -121 -152 -141 -188 -7 -14 -21 -38 -29 -55 -9 -16 -18 -32 -21
-35 -8 -6 -34 -62 -35 -73 -1 -4 -7 -11 -14 -16 -8 -5 -13 -11 -12 -15 3 -10
-102 -220 -114 -228 -6 -4 -7 -8 -3 -8 5 0 0 -12 -11 -27 -11 -16 -23 -38 -26
-50 -4 -13 -12 -23 -17 -23 -6 0 -8 -4 -4 -9 3 -5 0 -15 -7 -23 -19 -19 -134
-265 -152 -323 -14 -45 -40 -149 -53 -215 -9 -45 -24 -249 -27 -365 -1 -44 -5
-86 -9 -92 -5 -7 -4 -13 1 -13 5 0 9 -43 8 -95 -1 -52 1 -95 4 -95 3 0 6 -19
7 -43 1 -23 4 -53 7 -67 7 -32 16 -68 22 -100 3 -14 7 -29 8 -35 2 -5 6 -23
10 -40 4 -16 10 -37 13 -45 3 -8 8 -24 10 -35 2 -10 9 -23 16 -27 6 -4 9 -8 5
-8 -4 0 1 -20 12 -45 11 -25 16 -45 13 -45 -4 0 2 -7 13 -15 10 -8 15 -15 11
-15 -4 0 4 -17 18 -37 14 -21 25 -42 25 -47 0 -5 11 -24 25 -42 14 -18 25 -37
25 -43 0 -6 4 -11 8 -11 4 0 15 -12 24 -27 9 -16 33 -45 52 -66 20 -20 36 -39
36 -41 0 -3 20 -26 45 -52 44 -45 60 -94 33 -94 -9 0 -9 -3 -3 -8 6 -4 10 -16
10 -27 0 -11 3 -25 7 -30 4 -6 7 -20 6 -30 0 -21 9 -88 19 -140 3 -16 6 -39 7
-50 1 -11 5 -26 9 -32 5 -7 6 -13 4 -13 -2 0 -1 -19 3 -42 7 -35 4 -48 -13
-73 -12 -16 -24 -32 -28 -35 -3 -3 -11 -15 -18 -27 -11 -21 -41 -32 -41 -15 0
4 -10 19 -23 34 -68 81 -142 183 -139 192 2 6 1 8 -3 4 -4 -3 -22 9 -40 28
-18 19 -38 34 -45 34 -6 0 -8 5 -5 10 3 6 1 10 -4 10 -6 0 -30 14 -53 30 -26
19 -53 30 -75 30 -18 0 -33 5 -33 12 0 6 -3 9 -6 5 -7 -7 -36 17 -133 111 -41
39 -79 72 -84 72 -5 0 -6 7 -3 16 3 8 2 13 -2 10 -10 -6 -29 10 -79 66 -23 25
-44 43 -47 40 -3 -3 -6 0 -6 6 0 7 -12 26 -27 43 -15 16 -44 56 -65 87 -21 31
-41 62 -46 67 -21 28 -84 172 -98 226 -23 88 -20 208 6 304 12 44 22 86 23 93
0 6 4 12 9 12 4 0 8 9 8 19 0 11 5 23 10 26 6 3 10 15 10 25 0 10 4 20 8 22 4
2 21 26 36 53 16 28 42 67 59 88 16 21 27 40 25 43 -6 5 -108 -105 -108 -116
0 -5 -4 -10 -8 -12 -13 -4 -82 -103 -82 -116 0 -6 -3 -12 -8 -14 -8 -3 -74
-134 -92 -183 -11 -28 -14 -38 -26 -90 -2 -11 -15 -63 -28 -115 -19 -77 -23
-121 -23 -227 0 -73 3 -133 8 -133 4 0 6 -13 5 -30 -1 -16 2 -30 7 -30 4 0 5
-5 2 -10 -4 -6 -1 -17 5 -25 7 -8 10 -15 7 -15 -3 0 -1 -17 5 -37 5 -21 11
-48 13 -59 1 -12 8 -31 14 -42 6 -11 11 -32 11 -46 0 -14 5 -28 10 -31 6 -3
10 -17 10 -31 0 -13 4 -24 9 -24 8 0 25 -56 22 -72 0 -5 4 -8 10 -8 5 0 7 -4
4 -10 -3 -5 -1 -10 4 -10 6 0 11 -9 11 -20 0 -11 4 -20 9 -20 8 0 24 -37 22
-52 -1 -5 4 -8 10 -8 6 0 9 -9 6 -20 -3 -10 -1 -18 5 -17 5 1 19 -16 31 -38
12 -22 25 -41 30 -43 4 -2 7 -10 7 -18 0 -8 5 -14 10 -14 6 0 10 -4 10 -10 0
-5 16 -32 35 -58 19 -27 33 -52 30 -55 -3 -4 -2 -5 1 -2 8 5 34 -20 34 -34 0
-6 5 -11 10 -11 6 0 10 -7 10 -15 0 -8 5 -15 10 -15 6 0 10 -8 10 -18 0 -9 9
-23 20 -30 11 -7 20 -19 20 -27 0 -8 5 -15 10 -15 6 0 10 -5 10 -11 0 -6 7
-17 16 -26 8 -9 13 -22 10 -30 -3 -8 -2 -12 3 -9 9 6 78 -84 73 -96 -1 -5 5
-8 14 -8 8 0 13 -4 10 -9 -3 -4 3 -16 14 -26 11 -10 20 -22 20 -27 0 -7 32
-47 68 -84 6 -7 12 -15 12 -19 0 -3 12 -19 28 -35 15 -16 36 -39 48 -52 l20
-23 -20 -40 c-12 -22 -23 -42 -26 -45 -3 -3 -23 -43 -44 -90 -21 -47 -40 -87
-42 -89 -5 -5 -127 119 -224 228 -36 41 -82 91 -103 113 -20 22 -34 45 -31 50
4 6 2 8 -3 5 -6 -4 -29 11 -52 33 -23 22 -41 37 -41 33 0 -4 -8 4 -17 17 -9
14 -26 31 -37 39 -20 15 -123 118 -166 167 -55 62 -129 188 -147 249 -26 87
-43 208 -44 318 -1 70 -5 127 -9 127 -3 0 -7 -6 -7 -12 -1 -14 -11 -80 -18
-118 -20 -98 -28 -209 -28 -370 0 -176 14 -387 29 -460 3 -14 7 -38 9 -55 2
-16 9 -50 14 -75 6 -25 16 -69 22 -97 7 -29 16 -53 21 -53 5 0 7 -4 4 -9 -12
-18 113 -321 135 -329 5 -2 9 -8 9 -14 0 -12 56 -94 95 -137 53 -60 89 -91
148 -132 66 -46 65 -35 22 -184 -27 -96 -40 -150 -49 -202 -4 -18 -9 -48 -12
-65 -3 -18 -7 -72 -9 -119 -2 -48 -9 -97 -16 -110 -8 -14 -14 -62 -15 -117 -1
-51 -4 -95 -7 -98 -2 -3 -32 22 -66 56 -34 33 -66 60 -71 60 -6 0 -10 4 -10 9
0 11 -130 121 -144 121 -5 0 -2 -8 6 -17 19 -22 38 -66 93 -208 33 -87 116
-259 127 -263 4 -2 8 -8 8 -14 0 -6 11 -24 25 -42 14 -17 29 -35 33 -41 4 -5
25 -31 46 -58 35 -42 38 -52 33 -89 -3 -22 -11 -44 -17 -48 -6 -4 -12 -11 -13
-16 -1 -5 -5 -8 -10 -6 -4 1 -12 -9 -17 -24 -6 -14 -14 -23 -18 -20 -5 3 -24
8 -43 11 -19 4 -38 8 -44 9 -5 1 -16 5 -23 9 -6 5 -17 5 -22 2 -5 -3 -10 -2
-10 3 0 5 -12 12 -27 15 -63 13 -192 115 -269 212 -21 27 -43 55 -49 62 -5 7
-15 18 -21 25 -5 7 -13 22 -17 32 -4 10 -10 16 -13 13 -3 -3 4 -23 15 -46 12
-22 21 -47 21 -56 0 -8 4 -15 9 -15 5 0 13 -10 17 -22 10 -33 64 -110 93 -133
14 -11 35 -31 46 -45 38 -46 107 -111 113 -106 3 3 10 -1 16 -10 6 -8 18 -16
26 -18 8 -1 24 -7 35 -13 11 -6 29 -13 40 -14 11 -2 22 -7 25 -11 3 -4 17 -8
32 -10 15 -2 30 -7 34 -10 3 -4 12 -4 19 -2 26 10 26 -40 1 -186 -3 -14 -7
-61 -11 -105 -3 -44 -8 -93 -11 -110 -5 -40 -5 -619 1 -718 2 -43 7 -82 10
-88 4 -5 2 -9 -2 -9 -5 0 -9 -9 -9 -20 0 -11 4 -20 8 -20 5 0 4 -10 -3 -21 -8
-15 -8 -19 0 -15 7 5 11 -9 12 -41 0 -46 2 -64 14 -126 3 -20 1 -26 -8 -21 -8
6 -8 3 1 -9 8 -9 11 -20 8 -26 -3 -5 0 -12 6 -14 10 -4 10 -6 0 -6 -8 -1 -10
-6 -5 -14 4 -6 8 -21 9 -32 2 -11 5 -33 9 -48 4 -22 3 -27 -7 -21 -10 6 -10 4
0 -8 7 -9 14 -35 15 -57 1 -23 6 -41 11 -41 4 0 6 -7 2 -15 -3 -8 -2 -15 2
-15 5 0 9 -10 10 -22 0 -13 3 -36 6 -53 6 -32 10 -62 21 -135 3 -25 9 -52 12
-60 3 -8 8 -26 10 -40 2 -14 6 -32 10 -40 9 -23 10 -61 1 -66 -4 -3 -8 0 -8 5
0 6 -6 11 -14 11 -8 0 -18 9 -21 20 -3 11 -10 20 -15 20 -4 0 -32 24 -62 53
-29 28 -78 72 -108 97 -60 50 -81 72 -125 125 -16 20 -35 43 -42 49 -18 20
-93 145 -93 156 0 6 -5 10 -11 10 -5 0 -8 4 -5 9 4 5 1 11 -4 13 -6 2 -12 13
-13 26 0 12 -4 22 -7 22 -4 0 -7 6 -7 13 -1 6 -8 33 -16 60 -9 29 -11 47 -5
47 6 0 5 7 -2 15 -14 17 -22 263 -9 271 4 2 6 12 5 22 -2 9 3 34 10 56 12 34
12 37 -1 26 -8 -7 -12 -16 -9 -21 3 -5 1 -9 -4 -9 -5 0 -12 -14 -16 -30 -7
-39 -7 -39 -27 -80 -13 -26 -14 -37 -6 -42 9 -6 9 -8 0 -8 -7 0 -13 -7 -13
-16 0 -8 -4 -13 -9 -9 -6 3 -6 -6 -1 -25 5 -16 5 -30 1 -30 -3 0 -8 -12 -9
-27 -1 -15 -8 -30 -15 -35 -9 -6 -9 -8 0 -8 7 0 10 -11 8 -27 -2 -16 -4 -28
-5 -28 -1 0 -3 -21 -4 -47 -1 -27 3 -48 9 -48 7 0 6 -3 -1 -8 -12 -9 -15 -150
-3 -158 5 -3 4 -14 -2 -26 -8 -15 -8 -18 0 -14 7 5 11 -2 10 -16 -1 -13 2 -34
5 -48 3 -14 10 -47 16 -75 14 -75 17 -88 29 -119 7 -16 9 -31 7 -34 -3 -2 1
-14 9 -26 8 -11 15 -26 15 -32 0 -6 10 -33 22 -60 12 -27 23 -51 23 -54 2 -10
40 -85 45 -90 3 -3 26 -39 50 -80 24 -41 49 -78 55 -82 6 -5 6 -8 0 -8 -7 0
-7 -3 0 -8 6 -4 30 -32 55 -62 25 -30 60 -68 79 -85 19 -16 46 -40 60 -53 14
-13 52 -41 83 -63 61 -42 108 -95 108 -122 0 -10 5 -17 11 -17 5 0 8 -3 6 -7
-3 -5 0 -19 6 -33 5 -14 11 -30 12 -36 2 -6 17 -58 35 -115 18 -57 33 -110 33
-116 0 -7 5 -13 10 -13 6 0 8 -3 5 -6 -4 -3 -2 -20 3 -37 6 -18 12 -39 14 -47
1 -8 17 -57 34 -107 16 -51 31 -101 33 -110 2 -10 6 -20 10 -23 4 -3 3 -12 -2
-19 -7 -12 -11 -11 -25 2 -9 10 -20 15 -25 12 -5 -3 -10 -1 -12 5 -4 11 -106
19 -161 12 -32 -4 -37 -7 -34 -27 3 -24 24 -55 37 -55 14 0 70 -54 70 -67 0
-7 5 -13 11 -13 5 0 8 -4 5 -8 -3 -5 6 -15 19 -22 14 -8 25 -22 25 -34 0 -22
221 -206 400 -333 128 -92 147 -117 155 -207 12 -137 15 -163 19 -186 2 -14 7
-47 11 -73 4 -27 9 -59 11 -70 3 -12 7 -33 10 -47 36 -177 119 -408 206 -575
17 -33 41 -78 52 -100 12 -22 24 -42 27 -45 3 -3 14 -21 25 -40 10 -19 27 -42
37 -51 9 -9 17 -20 17 -26 0 -5 13 -24 30 -43 16 -19 29 -38 30 -42 0 -5 8
-16 18 -26 9 -10 28 -33 42 -51 14 -19 35 -45 47 -59 12 -14 19 -30 16 -35 -3
-6 -2 -7 4 -4 5 4 28 -14 49 -40 21 -25 47 -53 56 -62 10 -8 18 -20 18 -25 0
-5 10 -17 22 -27 11 -11 18 -19 15 -19 -8 0 21 -36 71 -88 17 -18 32 -38 32
-43 0 -5 4 -9 8 -9 5 0 33 -30 63 -66 30 -37 65 -79 79 -94 52 -58 126 -143
145 -168 30 -39 149 -162 157 -162 3 0 32 -25 63 -55 31 -30 59 -55 62 -55 4
0 32 -22 62 -48 31 -27 66 -54 79 -61 32 -17 43 -53 47 -153 4 -86 3 -86 -23
-94 -55 -15 -95 -22 -154 -29 -24 -2 -65 -9 -93 -15 -27 -6 -58 -12 -67 -13
-10 -1 -18 -4 -18 -7 0 -4 -6 -7 -14 -7 -34 0 -171 -79 -220 -127 -52 -50
-101 -131 -110 -178 -3 -13 -5 -23 -6 -23 -12 0 -17 -140 -6 -203 12 -71 57
-181 79 -190 4 -2 7 -9 7 -16 0 -21 114 -130 174 -165 31 -18 71 -37 89 -40
58 -13 142 24 209 91 21 21 70 97 72 112 1 6 5 17 10 25 12 19 8 128 -5 149
-6 9 -33 30 -60 47 -27 16 -49 32 -49 36 0 7 -55 29 -71 29 -5 0 -3 -11 3 -25
6 -14 16 -25 21 -25 6 0 8 -3 5 -6 -4 -3 0 -21 8 -39 37 -90 -1 -187 -77 -198
-46 -7 -149 113 -149 173 0 11 -4 21 -8 24 -7 4 -9 142 -2 156 1 3 2 8 1 12 0
5 2 8 7 8 4 0 13 13 20 28 6 16 27 36 46 44 l33 16 69 -71 c128 -132 195 -179
298 -207 103 -28 247 -22 311 13 11 6 23 11 28 12 4 0 7 3 7 8 0 4 0 12 0 18
0 6 -23 33 -50 60 -28 27 -50 46 -50 44 0 -6 -100 95 -125 125 -72 89 -119
266 -116 435 1 68 8 178 11 188 4 11 7 26 9 37 0 6 11 10 22 10 18 0 19 -2 9
-15 -7 -8 -10 -15 -6 -15 3 0 1 -12 -5 -27 -23 -60 -7 -180 35 -278 32 -73 62
-130 69 -133 4 -2 7 -9 7 -16 0 -7 9 -22 20 -34 11 -12 20 -24 19 -28 0 -3 8
-16 19 -29 11 -13 18 -26 15 -29 -4 -3 2 -6 12 -6 10 0 16 -3 13 -6 -6 -6 48
-61 95 -97 16 -12 35 -28 42 -34 8 -7 18 -13 22 -13 5 0 24 -13 42 -29 30 -27
39 -64 20 -81 -5 -5 -59 -135 -64 -155 -1 -5 -8 -23 -14 -40 -7 -16 -14 -38
-16 -47 -2 -9 -8 -25 -13 -35 -5 -10 -7 -24 -5 -30 3 -7 1 -13 -4 -13 -6 0
-10 -6 -11 -12 -1 -15 -1 -16 -28 -118 -17 -69 -24 -80 -84 -141 -49 -49 -86
-75 -150 -106 -84 -40 -135 -59 -181 -68 -13 -3 -37 -7 -52 -11 -16 -3 -51 -7
-78 -9 -28 -1 -53 -6 -56 -9 -3 -3 -12 -1 -19 5 -9 7 -19 7 -32 0 -11 -6 -22
-8 -25 -5 -2 3 -29 7 -58 9 -100 7 -199 24 -199 34 0 4 -10 7 -22 8 -22 2 -79
23 -88 32 -3 3 -36 22 -73 41 -37 19 -88 53 -112 76 -25 23 -45 40 -45 38 0
-4 -46 44 -70 73 -53 63 -160 236 -160 258 0 8 -4 15 -10 15 -5 0 -10 7 -10
15 0 8 -4 15 -10 15 -5 0 -3 -18 5 -40 8 -22 12 -40 8 -40 -3 0 -1 -6 4 -12 8
-11 18 -37 28 -78 12 -52 92 -224 125 -270 11 -15 20 -33 20 -40 0 -6 5 -8 10
-5 6 3 10 1 10 -5 0 -6 6 -18 13 -26 6 -7 37 -43 67 -78 30 -35 60 -65 65 -66
6 0 26 -14 45 -30 19 -17 40 -30 46 -30 7 0 14 -3 16 -7 4 -11 95 -53 113 -53
8 0 15 -4 15 -8 0 -5 6 -9 13 -9 6 -1 40 -8 75 -18 35 -9 70 -14 78 -11 8 3
14 2 14 -3 0 -15 202 -19 310 -7 36 4 76 9 90 11 14 1 32 5 40 8 8 3 49 15 90
28 41 12 81 26 88 32 6 5 12 6 12 2 0 -4 17 3 38 15 20 12 48 24 62 26 24 4
25 3 21 -48 -6 -90 -8 -558 -2 -558 3 0 7 -17 7 -38 3 -67 36 -205 56 -229 6
-7 7 -13 3 -13 -4 0 0 -11 9 -25 9 -14 13 -25 9 -25 -5 0 -1 -5 8 -10 9 -5 20
-22 24 -37 3 -14 15 -38 26 -51 10 -14 19 -31 19 -38 0 -8 7 -14 16 -14 8 0
13 -4 10 -9 -8 -13 82 -104 94 -96 8 5 8 11 1 19 -6 7 -12 21 -14 32 -1 10 -7
26 -12 34 -5 8 -11 20 -12 25 -1 6 -7 28 -13 50 -30 109 -40 206 -40 395 0
258 10 326 41 269 7 -13 12 -25 10 -27 -4 -6 33 -118 41 -123 5 -3 9 -10 9
-15 -1 -10 40 -93 67 -136 60 -95 97 -157 109 -181 9 -16 21 -31 29 -34 8 -3
14 -9 14 -15 0 -13 52 -87 89 -125 17 -18 31 -37 31 -42 0 -5 5 -11 10 -13 6
-2 12 -13 13 -26 0 -12 5 -22 10 -22 5 0 7 -7 4 -15 -4 -8 -2 -17 4 -20 5 -4
7 -11 4 -16 -4 -5 -1 -9 6 -9 7 0 10 -3 6 -6 -3 -3 3 -29 15 -58 11 -28 21
-57 22 -64 1 -7 8 -18 14 -24 7 -7 12 -20 12 -30 0 -10 5 -18 10 -18 6 0 10
-5 10 -12 0 -24 169 -222 170 -199 0 3 5 -2 11 -11 5 -10 17 -18 24 -18 8 0
15 -5 15 -11 0 -5 4 -8 9 -5 5 3 13 0 19 -7 6 -7 44 -28 84 -46 40 -18 80 -37
88 -41 15 -7 110 -24 200 -35 75 -9 205 -42 255 -65 11 -5 46 -21 78 -34 32
-14 79 -39 103 -56 25 -16 49 -30 54 -30 5 0 17 -8 27 -18 27 -27 109 -92 117
-92 3 0 -6 14 -21 31 -66 73 -160 265 -177 359 -3 14 -5 25 -6 25 -6 0 -33
182 -34 223 0 12 -3 22 -6 22 -10 0 -14 428 -5 490 3 19 6 47 7 62 2 32 23 44
36 21 6 -11 11 -12 16 -4 4 6 4 11 -1 11 -4 0 -8 36 -8 80 0 44 2 80 5 80 3 0
5 16 5 37 0 20 6 38 12 40 8 3 12 -4 12 -19 -2 -40 11 -229 16 -238 4 -7 10
-40 17 -95 2 -11 6 -22 10 -25 3 -3 8 -19 11 -36 3 -17 10 -40 16 -51 5 -11 7
-23 4 -27 -3 -3 -1 -6 5 -6 7 0 11 -3 10 -7 -6 -23 93 -234 113 -241 5 -2 9
-8 9 -13 0 -12 80 -116 127 -164 40 -41 151 -142 200 -183 38 -32 123 -72 151
-72 13 0 21 -4 18 -9 -3 -5 0 -9 7 -8 36 1 57 -4 52 -13 -4 -7 3 -7 19 0 14 5
26 6 26 1 0 -5 9 -11 20 -14 11 -3 20 0 20 6 0 8 3 7 9 -1 4 -8 11 -13 15 -13
3 1 7 0 9 0 8 -4 90 -9 212 -14 77 -3 146 -8 153 -10 7 -3 11 -1 8 4 -3 4 8 8
24 7 17 -1 30 -5 30 -11 0 -5 5 -3 10 5 8 12 11 13 19 1 5 -8 10 -9 12 -2 2 5
33 13 69 15 36 3 85 8 110 11 25 3 60 7 78 8 17 1 32 4 32 7 0 3 15 6 33 7 41
2 65 7 73 16 4 4 14 1 22 -6 13 -9 14 -9 8 0 -5 9 -1 13 11 14 10 0 27 3 38 6
11 3 30 6 43 7 12 0 22 4 22 8 0 5 3 7 8 6 4 -1 27 5 52 12 25 7 48 13 53 12
4 -1 7 3 7 8 0 5 3 9 8 8 4 -1 23 4 42 11 19 8 38 14 42 15 3 1 10 4 14 8 4 5
16 8 26 8 10 0 18 5 18 10 0 6 9 10 20 10 11 0 20 4 20 8 0 5 6 9 13 9 6 0 44
15 82 33 39 18 72 34 75 35 16 3 86 40 91 48 3 5 10 9 15 9 22 0 207 114 250
153 6 5 31 26 54 45 43 35 121 110 115 110 -2 0 11 15 29 33 46 49 76 90 76
105 0 6 3 12 8 12 7 0 56 99 54 110 0 3 4 10 9 16 4 6 20 52 33 103 22 82 25
108 21 224 -5 159 -11 206 -37 272 -31 78 -31 86 -2 73 13 -6 24 -15 24 -20 0
-4 5 -8 11 -8 6 0 29 -13 52 -28 93 -63 271 -138 352 -148 22 -3 51 -8 65 -11
26 -5 60 -11 73 -12 13 -2 7 -39 -9 -55 -8 -9 -11 -16 -7 -16 5 0 20 12 32 26
14 16 26 23 30 16 3 -6 18 -12 31 -14 14 -2 30 -6 35 -10 18 -10 74 -20 84
-13 10 5 -25 77 -41 83 -5 2 -6 8 -2 13 3 5 -2 12 -10 15 -9 3 -16 12 -16 19
0 8 -6 20 -12 27 -7 7 -26 31 -42 53 -17 22 -33 42 -36 45 -3 3 -18 21 -33 41
-32 42 -37 71 -9 46 10 -10 24 -17 31 -17 7 0 10 -4 7 -9 -6 -9 43 -33 73 -37
123 -15 159 -25 216 -58 118 -70 135 -310 30 -441 -26 -33 -87 -80 -108 -83
-4 -1 -21 -9 -37 -17 -17 -9 -30 -13 -30 -11 0 3 -15 0 -32 -5 -34 -10 -178
-12 -236 -4 -18 3 -42 10 -53 16 -19 10 -42 0 -69 -32 -3 -3 -20 -14 -37 -24
-18 -11 -33 -23 -33 -27 0 -4 -7 -8 -15 -8 -31 0 -14 -25 18 -26 17 0 50 -4
72 -8 22 -4 77 -9 123 -11 45 -2 87 -7 92 -10 6 -3 10 -3 10 2 0 4 24 7 52 7
29 -1 78 2 108 7 30 5 73 11 95 15 22 3 46 11 53 16 6 6 12 8 12 4 0 -14 105
48 139 82 40 40 76 107 87 162 4 19 7 87 8 151 2 63 5 120 9 126 4 6 17 10 29
9 13 -1 35 1 50 5 15 4 30 3 34 -2 3 -5 10 -7 15 -3 16 10 69 11 69 2 0 -5 8
-5 18 -1 21 10 53 10 69 0 6 -4 14 -4 17 1 5 8 64 8 72 -1 3 -3 -1 -21 -10
-40 -8 -19 -12 -38 -8 -41 3 -4 7 -12 8 -19 5 -27 35 -87 44 -87 6 0 10 -5 10
-11 0 -24 76 -71 159 -98 49 -16 57 -14 31 9 -13 11 -20 20 -16 20 4 0 -2 14
-14 30 -12 17 -19 30 -15 30 3 0 1 9 -4 19 -8 15 -23 97 -23 131 -1 50 37 68
159 75 49 2 88 5 88 6 0 0 8 2 18 4 9 2 17 -1 17 -7 0 -7 5 -7 13 1 8 6 16 8
19 6 3 -3 23 -8 44 -11 44 -5 94 -25 94 -36 0 -5 5 -8 11 -8 37 0 209 -156
209 -189 0 -6 4 -11 9 -11 18 0 45 -126 47 -218 1 -51 4 -95 6 -97 11 -11 71
40 85 73 20 46 25 134 11 187 -6 22 -13 48 -15 58 -5 31 -56 127 -80 153 -13
14 -23 27 -23 29 0 16 -44 50 -95 74 -85 40 -186 79 -215 83 -32 4 -52 17 -45
28 5 9 113 46 160 56 18 3 31 8 90 30 11 4 25 8 30 10 6 1 28 10 50 19 22 10
51 19 65 20 14 2 33 6 43 10 23 10 22 -6 -4 -39 l-21 -27 24 6 c24 6 35 -1
116 -73 14 -12 30 -22 35 -22 6 0 8 -2 5 -5 -3 -3 13 -24 34 -48 67 -70 122
-201 120 -282 -2 -64 -37 -219 -54 -242 -21 -26 4 -33 37 -10 77 53 120 152
120 282 0 96 -12 130 -73 214 -69 93 -190 217 -226 231 -15 5 -24 15 -21 20 9
15 235 4 310 -14 32 -8 61 -13 64 -11 2 3 9 1 15 -5 21 -16 305 -35 331 -21 5
3 25 6 45 6 19 1 44 4 55 8 11 3 34 9 50 11 47 8 144 43 179 66 18 11 36 17
39 13 4 -3 7 -1 7 5 0 6 9 14 20 17 11 4 31 17 44 30 13 13 26 22 29 19 8 -8
170 158 190 195 l19 32 -24 -13 c-12 -7 -25 -16 -28 -19 -11 -14 -202 -82
-235 -84 -5 0 -15 -4 -21 -7 -6 -4 -21 -6 -32 -3 -12 2 -24 0 -26 -4 -8 -12
-152 -4 -231 14 -16 4 -63 8 -103 8 -45 1 -71 5 -68 12 2 5 9 9 15 8 6 -2 11
1 11 6 0 5 13 14 29 21 16 6 37 20 47 31 9 10 21 16 25 13 5 -3 9 0 9 5 0 6 7
11 15 11 7 0 18 6 22 13 4 7 24 23 43 35 19 11 46 32 60 44 75 70 245 179 285
184 6 0 24 6 40 13 26 11 85 34 160 61 11 4 23 7 26 6 3 0 13 5 22 13 10 7 17
10 17 6 0 -5 9 0 20 10 11 10 20 15 20 10 0 -4 7 -2 15 5 8 7 15 9 15 4 0 -5
4 -4 8 2 4 5 25 18 47 29 40 18 115 64 125 76 3 3 16 12 29 19 14 7 30 17 35
21 6 5 37 30 69 55 32 26 56 49 54 51 -2 2 -17 -1 -33 -7 -16 -6 -31 -11 -33
-10 -2 1 -7 -4 -12 -12 -5 -7 -13 -14 -19 -14 -5 -1 -12 -3 -15 -4 -3 -1 -8
-3 -12 -5 -5 -1 -17 -5 -28 -9 -11 -4 -33 -12 -50 -18 -16 -5 -39 -14 -50 -18
-11 -5 -51 -18 -90 -30 -38 -12 -79 -25 -90 -30 -29 -13 -140 -44 -141 -39 0
2 -7 -1 -15 -7 -8 -6 -35 -17 -61 -25 -27 -7 -48 -16 -48 -19 0 -5 -18 -9 -57
-12 -7 -1 -13 -5 -13 -10 0 -4 -6 -8 -14 -8 -7 0 -25 -9 -39 -20 -14 -11 -28
-16 -31 -12 -6 10 38 52 54 52 5 0 13 6 17 13 4 7 24 24 43 37 19 13 37 27 40
30 3 3 28 23 55 45 28 22 84 73 125 115 41 41 104 100 140 130 35 30 73 63 85
73 11 10 43 34 72 53 28 19 54 42 58 53 6 20 45 41 78 41 30 1 94 31 167 79
34 23 67 41 75 41 7 0 26 16 42 36 15 19 66 77 113 127 98 106 130 144 130
154 0 3 7 13 15 22 9 9 29 35 45 59 22 31 37 42 58 43 15 1 50 3 77 5 28 2 57
4 65 5 8 1 33 6 55 11 22 6 54 12 70 15 17 2 62 19 100 37 67 32 122 51 137
48 4 -1 10 7 13 18 4 11 10 20 15 20 9 0 17 6 109 95 29 28 57 50 62 50 5 0
13 5 17 10 4 6 13 10 20 11 44 4 47 5 25 14 -21 8 -18 13 52 85 41 41 73 75
70 75 -3 0 0 6 7 14 7 8 17 11 22 8 5 -3 6 0 3 5 -4 6 4 22 18 37 13 14 21 26
17 26 -3 0 7 12 24 28 16 15 33 35 37 45 4 11 12 15 18 11 8 -4 9 -3 5 4 -4 7
16 35 47 67 30 30 52 55 49 55 -3 0 23 27 58 60 35 33 67 60 72 60 4 0 8 6 8
13 0 7 8 20 18 28 19 18 42 44 92 109 19 25 37 47 40 50 6 6 76 101 108 147
12 18 22 37 22 43 0 5 4 10 8 10 4 0 15 13 24 28 9 16 53 64 98 108 77 75 120
133 134 179 4 16 -1 25 -23 38 -28 16 -30 16 -47 0 -19 -20 -52 -40 -159 -101
-112 -63 -139 -64 -96 -4 15 22 30 61 35 92 1 3 11 21 24 41 12 20 22 43 22
51 0 8 5 19 12 26 7 7 9 12 5 12 -4 0 5 24 20 52 15 29 28 57 29 63 1 6 14 38
29 71 15 32 28 64 28 71 0 7 4 10 8 7 4 -2 10 5 14 16 6 19 27 22 52 7 24 -15
193 -75 193 -68 0 10 -59 44 -175 101 -60 29 -113 57 -116 62 -3 5 12 45 34
90 22 46 40 87 42 93 1 5 7 23 13 38 7 16 12 35 12 43 0 8 5 14 11 14 5 0 8 4
4 10 -3 5 -1 17 4 27 15 28 60 149 65 175 2 13 10 37 17 53 6 17 13 36 15 43
1 8 6 21 10 30 7 18 11 29 18 60 3 9 5 18 6 20 2 1 3 5 4 10 2 4 9 27 16 52 7
25 14 48 16 53 1 4 2 8 4 10 1 1 3 9 5 17 1 8 13 53 25 100 28 108 34 135 45
198 8 44 15 57 52 87 48 39 183 176 183 186 0 4 6 14 13 21 26 27 136 206 176
288 24 47 47 92 52 100 19 32 69 149 69 162 0 8 3 18 7 22 5 4 8 11 9 14 0 4
7 27 14 52 7 25 14 48 16 53 1 4 3 9 4 12 6 13 24 127 22 138 -1 4 3 7 8 7 7
0 8 6 1 17 -5 9 -6 26 -1 37 8 23 5 272 -4 346 -12 90 -23 145 -43 205 -10 28
-16 53 -15 58 1 4 -2 7 -6 7 -4 0 -8 10 -9 21 -1 12 -7 27 -14 33 -9 8 -10 8
-5 -2 9 -15 10 -221 2 -267 -2 -16 -8 -50 -11 -75 -8 -49 -13 -75 -15 -75 -1
0 -3 -12 -5 -26 -6 -42 -72 -212 -111 -281 -43 -78 -106 -163 -169 -230 -53
-56 -68 -61 -53 -15 5 17 12 100 14 182 3 133 8 206 20 270 5 29 15 92 19 128
2 18 6 48 9 67 4 19 8 60 10 90 3 30 7 71 10 90 35 222 41 960 11 1285 -3 28
-7 73 -9 100 -11 136 -15 170 -31 255 -2 14 -7 43 -10 65 -3 23 -7 50 -9 62
-3 12 -7 41 -11 65 l-7 44 60 27 c33 14 67 33 76 42 9 9 16 13 16 9 0 -3 21
15 47 42 57 60 90 131 98 209 l6 60 -34 -66 c-41 -81 -118 -157 -207 -203 -90
-47 -123 -53 -149 -27 -12 12 -32 21 -46 21 -34 0 -75 20 -75 38 0 7 36 49 79
92 44 44 82 88 86 99 3 12 10 21 15 21 4 0 10 8 13 18 2 9 8 25 12 36 8 18 7
18 -19 1 -15 -10 -29 -15 -32 -12 -4 3 -30 -5 -59 -18 l-54 -23 -7 41 c-13 73
-12 121 3 155 17 37 92 108 188 178 36 26 61 51 55 54 -10 6 64 90 80 90 6 0
10 4 10 8 0 5 10 14 23 20 53 26 -10 9 -75 -20 -100 -44 -164 -82 -225 -135
l-53 -45 -1 84 c-2 112 -5 153 -23 343 -5 42 -23 162 -32 205 -3 14 -8 41 -10
60 -3 19 -10 53 -16 75 -6 22 -12 47 -13 55 -1 8 -5 29 -9 45 -3 17 -8 39 -10
51 -5 24 -26 102 -34 124 -3 8 -6 20 -8 27 -3 15 -24 83 -31 103 -3 8 -7 20
-9 25 -1 6 -8 26 -15 45 -22 63 -23 67 -33 115 -1 6 -4 15 -8 20 -5 10 -13 42
-23 96 -5 28 5 40 71 86 97 66 175 138 251 233 29 36 59 73 68 83 8 9 13 17
10 17 -2 0 6 11 19 24 12 14 31 43 42 65 10 23 22 41 25 41 8 0 28 46 34 79 2
13 1 20 -3 17 -7 -7 -8 -11 -11 -37 0 -5 -5 -7 -11 -4 -5 3 -10 0 -10 -7 0 -7
-27 -41 -60 -75 -33 -34 -60 -60 -60 -57 0 3 -12 -9 -26 -26 -15 -17 -28 -29
-31 -27 -2 3 -17 -8 -33 -24 -16 -16 -36 -29 -44 -29 -9 0 -16 -4 -16 -9 0 -6
-71 -40 -100 -47 -3 0 -12 -3 -20 -7 -8 -3 -26 -8 -40 -10 -14 -3 -36 -8 -50
-12 -90 -23 -184 -26 -186 -5 -3 32 -5 35 -12 23 -10 -15 -72 -29 -72 -16 0 5
10 15 21 23 12 8 28 21 35 28 8 7 14 11 14 8 0 -8 54 39 147 130 45 44 80 84
76 87 -3 4 -2 7 4 7 6 0 23 19 39 43 16 23 37 51 46 61 10 11 20 28 24 38 3
10 16 30 28 43 12 13 29 42 36 65 7 22 17 40 22 40 4 0 8 9 8 20 0 10 10 29
23 41 12 12 16 19 10 15 -17 -9 -16 5 1 29 12 18 46 135 51 175 1 8 4 24 8 35
19 58 28 376 13 475 -4 25 -6 57 -6 73 0 15 -3 27 -7 27 -5 0 -9 15 -10 33 -1
17 -14 70 -29 117 -15 47 -27 88 -26 93 1 4 -2 7 -8 7 -6 0 -9 3 -8 8 3 12
-51 121 -83 168 -16 23 -29 47 -29 52 0 6 -4 12 -8 14 -5 2 -23 26 -42 53 -44
66 -140 165 -182 189 l-33 18 26 -23 c62 -57 180 -255 218 -369 13 -36 26 -72
30 -80 8 -19 6 -133 -4 -220 -4 -36 -8 -76 -10 -90 -1 -14 -7 -37 -13 -51 -6
-14 -12 -36 -14 -50 -1 -13 -7 -27 -11 -30 -5 -3 -9 -12 -11 -20 -5 -33 -30
-94 -43 -107 -7 -7 -13 -22 -13 -32 0 -10 -3 -20 -7 -22 -5 -2 -19 -23 -32
-48 -50 -91 -159 -250 -195 -283 -66 -61 -87 -77 -101 -77 -8 0 -15 -4 -15
-10 0 -17 -21 -11 -42 13 -11 12 -16 16 -12 8 5 -11 3 -13 -9 -8 -10 3 -17 2
-17 -3 0 -5 -8 -9 -17 -8 -10 0 -30 -3 -45 -6 -15 -3 -30 -2 -33 4 -3 5 -2 10
2 10 5 0 14 12 21 28 6 15 21 42 32 60 29 48 13 39 -46 -25 l-53 -57 1 55 c1
29 7 61 14 69 7 8 13 18 13 22 1 5 8 23 15 40 14 33 27 66 31 81 2 4 4 9 5 12
3 5 3 6 15 50 4 17 11 35 14 40 4 6 7 17 6 25 0 8 2 17 6 20 3 3 10 16 14 30
8 27 2 23 -33 -24 -12 -15 -19 -32 -16 -37 3 -5 1 -9 -5 -9 -8 0 -43 -59 -47
-80 0 -3 -8 -22 -17 -42 -10 -21 -17 -41 -17 -46 0 -5 -7 -15 -15 -22 -8 -7
-13 -16 -10 -20 3 -4 -2 -13 -10 -20 -8 -7 -15 -18 -15 -25 0 -7 -7 -15 -15
-19 -16 -6 -15 11 7 82 11 36 20 246 11 268 -4 10 -9 11 -17 5 -6 -5 -17 -7
-24 -2 -20 12 -3 313 19 326 4 3 3 21 -3 41 -8 31 -5 49 21 123 17 47 34 96
36 109 3 12 7 30 10 40 26 98 31 129 40 257 3 44 8 112 11 150 5 62 6 97 4
138 -1 6 1 24 3 40 2 15 0 30 -5 33 -5 3 -4 11 2 19 6 8 7 16 2 19 -5 3 -9 25
-9 48 -1 37 -6 92 -18 173 -5 34 -45 188 -56 217 -6 15 -10 28 -9 30 1 2 -8
28 -20 58 -37 93 -41 105 -40 109 1 2 -3 7 -8 10 -13 8 -132 247 -132 266 0 8
-4 15 -10 15 -5 0 -10 6 -10 14 0 17 -52 120 -62 124 -5 2 -8 9 -8 15 0 12
-71 120 -82 125 -5 2 -8 8 -8 14 0 8 -38 64 -65 94 -5 6 -17 22 -25 35 -25 38
-172 179 -186 179 -4 0 -16 7 -26 17 -17 15 -18 15 -18 0 0 -10 4 -17 9 -17
15 0 77 -64 173 -180 7 -8 24 -36 38 -62 13 -27 28 -48 32 -48 5 0 8 -7 8 -15
0 -8 9 -30 20 -50 11 -19 17 -35 14 -35 -4 0 -1 -6 5 -13 6 -8 8 -17 4 -20 -3
-4 -1 -7 5 -7 7 0 11 -3 11 -7 -1 -5 0 -11 1 -15 1 -5 4 -12 5 -18 1 -5 3 -11
5 -12 3 -5 13 -62 25 -148 12 -82 -1 -385 -15 -385 -2 0 -4 -11 -5 -25 -2 -14
-6 -38 -10 -55 -4 -16 -8 -37 -10 -45 -2 -8 -4 -15 -5 -15 -1 0 -4 -11 -6 -25
-8 -43 -11 -55 -17 -70 -6 -17 -41 -159 -43 -175 0 -5 -4 -17 -7 -25 -5 -13
-15 -47 -34 -120 -3 -8 -6 -22 -7 -30 -1 -8 -6 -25 -10 -37 -4 -12 -9 -30 -11
-40 -3 -10 -21 -74 -40 -143 -19 -69 -37 -134 -39 -145 -2 -11 -9 -33 -16 -50
-6 -16 -11 -31 -11 -33 1 -1 -1 -12 -4 -25 -4 -13 -8 -32 -10 -43 -2 -10 -4
-19 -5 -19 -2 0 -10 -34 -15 -60 -2 -11 -4 -20 -5 -20 -1 0 -3 -8 -5 -19 -2
-10 -9 -41 -16 -70 -7 -28 -14 -54 -15 -58 -1 -5 -2 -9 -4 -10 -1 -2 -3 -12
-5 -23 -4 -22 -11 -46 -52 -180 -15 -49 -28 -92 -28 -95 -2 -5 -21 -54 -32
-80 -3 -8 -7 -17 -8 -20 -23 -65 -45 -90 -81 -90 -16 0 -13 33 11 103 31 93
77 284 77 320 -1 9 3 17 7 17 5 0 8 12 8 28 0 44 16 172 23 192 1 3 2 9 1 13
-1 5 -3 50 -6 100 -4 92 -11 165 -21 222 -3 17 -7 46 -9 65 -2 19 -7 53 -10
75 -11 61 -13 77 -20 120 -6 40 -10 63 -19 100 -2 11 -9 41 -15 67 -9 41 -27
92 -56 163 -4 11 -7 23 -7 28 1 4 -3 7 -8 7 -5 0 -9 3 -8 8 2 7 -36 76 -79
142 -13 19 -29 43 -36 54 -6 10 -17 24 -22 30 -6 6 -22 27 -35 46 -42 60 -137
160 -152 160 -5 0 -6 5 -3 10 3 6 2 10 -4 10 -5 0 -25 15 -43 33 -46 43 -73
65 -138 112 -30 22 -61 45 -68 52 -7 7 -22 13 -32 13 -10 0 -32 12 -48 28 -48
42 -116 100 -167 139 -5 5 -30 24 -55 43 -25 19 -50 39 -56 45 -24 22 -108 91
-128 104 -12 8 -23 17 -26 20 -3 3 -40 32 -82 65 -43 32 -78 63 -78 69 0 6 -3
8 -6 4 -3 -3 -43 30 -87 74 -45 43 -85 79 -90 79 -4 0 -5 5 -2 10 3 6 2 10 -3
10 -5 0 -24 15 -42 33 -19 19 -28 24 -22 12 6 -11 77 -87 157 -170 81 -82 176
-189 212 -237 35 -49 69 -88 74 -88 5 0 8 -4 6 -9 -1 -5 10 -24 25 -42 76 -94
108 -138 108 -147 0 -5 7 -12 15 -16 8 -3 15 -12 15 -21 0 -8 5 -15 12 -15 6
0 9 -3 5 -6 -3 -4 -1 -12 6 -20 31 -35 50 -64 97 -149 18 -33 37 -63 42 -66 5
-3 10 -14 13 -25 2 -10 13 -37 24 -58 11 -21 18 -43 15 -47 -3 -5 0 -9 5 -9 6
0 10 -3 10 -7 -1 -5 -1 -10 1 -13 6 -16 9 -50 4 -50 -3 0 -14 5 -24 10 -16 9
-18 7 -14 -12 10 -47 16 -136 15 -218 -1 -81 -8 -205 -12 -205 -1 0 -3 -16 -4
-35 -2 -19 -6 -52 -9 -72 -3 -21 -8 -53 -11 -70 -2 -18 -7 -44 -10 -58 -4 -14
-8 -34 -9 -45 -2 -11 -7 -38 -12 -60 -4 -22 -8 -44 -9 -50 -1 -5 -7 -23 -14
-40 -7 -16 -15 -40 -17 -52 -4 -23 -53 -159 -82 -228 -9 -22 -25 -49 -34 -59
-18 -20 -18 -19 -18 1 0 12 -11 35 -25 51 -14 17 -25 33 -25 36 0 8 -27 40
-98 115 -135 141 -205 211 -211 211 -3 0 -22 15 -41 33 -19 17 -52 43 -72 57
-21 14 -38 28 -38 33 0 4 -7 7 -15 7 -8 0 -15 5 -15 10 0 6 -6 10 -12 10 -7 1
-29 14 -48 30 -19 17 -40 30 -47 30 -6 0 -16 6 -20 13 -4 6 -33 25 -63 41 -30
16 -57 32 -60 36 -3 3 -32 21 -65 40 -33 19 -62 36 -65 40 -3 3 -21 14 -40 23
-19 10 -67 37 -107 61 -39 24 -74 42 -77 38 -3 -3 -6 -1 -6 5 0 6 -11 14 -25
17 -14 4 -25 11 -25 16 0 6 -10 10 -22 10 -12 0 -18 3 -15 7 6 5 -61 43 -83
47 -3 1 -35 16 -72 34 -37 17 -72 32 -77 32 -6 0 -11 5 -11 10 0 6 -6 10 -12
10 -7 0 -43 16 -80 34 -37 19 -69 32 -72 28 -3 -3 -6 -1 -6 5 0 6 -11 14 -25
17 -14 4 -49 17 -78 31 -45 20 -85 37 -192 80 -11 4 -24 9 -30 11 -5 1 -23 8
-40 15 -16 7 -36 11 -42 10 -7 -1 -13 2 -13 7 0 5 -6 9 -12 10 -43 5 -77 15
-73 21 2 4 -1 8 -8 8 -7 0 -37 8 -68 17 -31 9 -67 19 -80 21 -20 4 -145 41
-259 77 -19 6 -42 16 -50 22 -23 19 -128 48 -184 51 -28 2 -64 7 -81 10 -16 4
-37 8 -45 10 -8 2 -15 4 -15 5 0 2 -24 6 -80 14 -22 4 -53 9 -70 12 -16 3 -37
7 -45 8 -9 1 -20 4 -25 7 -6 3 -26 6 -45 8 -19 2 -40 7 -46 12 -6 5 -13 7 -15
4 -3 -2 -50 3 -104 11 -55 8 -109 17 -120 18 -11 2 -27 6 -35 9 -8 4 -26 8
-40 10 -42 5 -113 42 -155 81 -22 20 -44 36 -48 36 -4 0 -17 9 -29 20 -12 11
-28 20 -35 20 -8 0 -11 5 -8 10 3 6 1 10 -6 10 -6 0 -25 14 -41 30 -15 17 -32
30 -37 30 -5 0 -18 11 -29 25 -11 13 -22 21 -26 18 -3 -3 -6 -1 -6 5 0 13 -35
52 -46 52 -10 0 -44 42 -44 53 0 6 -3 8 -6 5 -10 -11 89 -196 130 -242 23 -25
45 -46 49 -46 7 0 44 -30 74 -59 8 -7 13 -21 11 -30 -3 -13 -16 -16 -66 -16
-34 0 -62 3 -62 6 0 3 -7 6 -15 6 -18 0 -20 -17 -2 -18 6 0 3 -4 -8 -8 -11 -5
-31 -4 -45 0 -14 5 -32 8 -40 7 -8 -1 -43 0 -76 0 -70 2 -76 8 -64 70 4 25 3
45 -3 51 -8 8 -7 11 2 11 7 0 9 5 5 11 -3 6 -8 29 -9 50 -3 40 -62 169 -76
169 -5 0 -5 -10 0 -22 5 -13 11 -43 15 -67 3 -24 8 -46 11 -49 3 -3 0 -11 -6
-18 -6 -7 -6 -15 -1 -18 5 -3 6 -23 2 -46 -4 -23 -3 -40 2 -40 5 0 6 -6 1 -12
-4 -7 -8 -19 -10 -27 -9 -60 1 -57 -165 -58 l-153 -1 -17 37 c-28 58 -50 93
-113 175 -33 43 -67 88 -75 100 -8 11 -18 23 -23 24 -4 2 -17 24 -28 49 -21
47 -24 75 -16 186 4 41 2 67 -4 67 -6 0 -7 5 -4 10 10 17 -49 132 -86 168 -19
18 -54 44 -79 58 l-45 26 46 -44z m1331 -1280 c-7 -7 -10 -5 -7 8 5 29 6 30
12 16 3 -8 1 -18 -5 -24z m-7865 -3680 c-3 -8 -6 -5 -6 6 -1 11 2 17 5 13 3
-3 4 -12 1 -19z m-79 -5618 c12 -19 11 -20 -8 -8 -20 13 -27 28 -12 28 4 0 13
-9 20 -20z m2992 -3010 c15 -11 30 -17 32 -14 10 10 85 -71 80 -86 -12 -34
-29 -31 -70 13 -9 9 -22 17 -30 17 -7 0 -10 5 -7 10 3 6 2 10 -2 10 -5 0 -16
13 -26 29 -28 47 -22 53 23 21z m186 -418 c1 -7 0 -8 -3 -2 -2 5 -10 10 -15
10 -6 0 -9 -3 -5 -6 9 -9 -21 -36 -33 -29 -5 3 -7 0 -5 -8 4 -8 -6 -19 -22
-27 -15 -8 -38 -26 -50 -40 -12 -14 -22 -22 -23 -19 0 3 -19 -11 -41 -32 -23
-21 -46 -36 -50 -33 -5 3 -9 0 -9 -6 0 -6 -4 -8 -10 -5 -5 3 -10 0 -10 -7 0
-9 -3 -9 -8 -2 -4 6 -13 13 -21 15 -11 4 -11 7 1 19 28 29 83 70 92 69 5 0 12
3 15 8 9 14 92 68 129 84 17 8 32 18 32 22 0 13 33 3 36 -11z m-333 -255 c-10
-17 -71 -85 -100 -110 -11 -10 -27 -15 -36 -11 -15 5 -14 10 5 38 26 37 78 91
78 81 0 -4 7 -2 15 5 8 6 19 9 25 5 5 -3 10 -1 10 6 0 7 3 10 6 6 3 -3 2 -12
-3 -20z m612 -29 c-11 -6 -22 -14 -25 -18 -10 -13 -38 -18 -48 -8 -6 6 -12 6
-17 -3 -5 -8 -4 -10 3 -5 7 4 12 3 12 -1 0 -5 -9 -14 -19 -20 -31 -19 -32 7
-2 33 32 26 48 32 86 33 27 0 28 -1 10 -11z m-184 -120 c-12 -10 -21 -24 -21
-30 0 -6 -3 -8 -6 -5 -7 7 -93 -60 -135 -105 -14 -15 -31 -28 -37 -28 -7 0
-12 -5 -12 -10 0 -6 -10 -22 -22 -35 -21 -22 -65 -70 -145 -160 -18 -19 -33
-42 -33 -49 0 -8 -7 -17 -16 -20 -8 -3 -12 -10 -9 -16 3 -5 2 -10 -3 -10 -11
0 -107 -144 -137 -205 -10 -22 -24 -46 -29 -54 -6 -7 -11 -20 -12 -29 -2 -8
-7 -18 -11 -21 -5 -3 -20 -35 -33 -71 -13 -36 -27 -70 -32 -76 -4 -6 -5 -13
-3 -16 3 -3 1 -17 -5 -32 -10 -27 -12 -35 -29 -116 -6 -25 -15 -60 -20 -79 -6
-19 -8 -38 -5 -42 3 -5 0 -9 -6 -9 -6 0 -9 -3 -6 -8 6 -9 -22 -47 -29 -40 -4
3 -6 14 -5 24 1 38 8 99 10 99 1 0 4 9 6 20 2 11 6 34 9 50 3 17 7 40 7 53 1
12 4 22 8 22 3 0 5 10 6 23 2 32 15 100 22 112 4 6 7 15 8 20 1 6 9 29 17 52
9 22 13 43 11 46 -2 2 2 10 11 17 8 7 15 19 15 27 0 8 8 28 17 46 9 18 18 38
19 46 2 8 6 17 11 20 4 3 17 23 28 44 11 21 28 45 38 54 9 9 17 22 17 29 0 7
3 14 8 16 4 2 20 19 35 38 33 39 177 190 182 190 2 0 27 25 56 55 28 30 60 57
70 60 11 4 17 11 14 16 -4 5 1 9 9 9 9 0 16 8 16 17 0 9 3 14 6 10 4 -3 21 5
40 19 19 15 38 23 45 18 8 -4 9 -3 5 4 -8 13 43 42 62 35 10 -4 8 -10 -7 -25z
m839 -239 c0 -12 -79 -51 -90 -44 -5 3 -12 0 -16 -6 -5 -8 -3 -9 6 -4 8 5 11
4 6 -3 -4 -6 -13 -9 -21 -5 -8 3 -15 0 -15 -7 0 -7 -7 -10 -15 -6 -8 3 -19 -2
-24 -12 -6 -9 -11 -14 -11 -9 0 4 -19 -3 -42 -15 -24 -12 -47 -21 -53 -19 -5
1 -4 -3 3 -10 17 -18 15 -34 -3 -19 -8 6 -18 9 -24 6 -5 -3 -12 -1 -14 4 -3 6
-4 5 -3 -2 2 -7 12 -12 22 -10 14 2 16 1 5 -6 -10 -7 -11 -14 -2 -28 10 -18
10 -17 11 4 0 13 4 20 10 17 6 -4 8 -10 5 -15 -3 -5 -1 -11 4 -15 6 -3 8 3 6
14 -3 14 3 20 26 23 15 3 34 0 40 -6 9 -8 10 -8 5 1 -9 17 12 27 29 13 17 -14
21 -35 5 -25 -5 3 -10 3 -10 -2 0 -4 -17 -19 -38 -33 -20 -14 -42 -32 -49 -40
-7 -8 -13 -12 -13 -8 0 4 -11 -3 -24 -15 -103 -96 -121 -113 -121 -117 0 -3
-23 -35 -50 -71 -68 -90 -79 -106 -74 -114 2 -3 -4 -11 -13 -16 -10 -6 -18
-17 -18 -25 0 -8 -4 -12 -10 -9 -6 3 -7 -1 -4 -9 4 -9 -1 -18 -10 -22 -9 -3
-14 -10 -11 -15 3 -4 -8 -35 -25 -69 -17 -33 -28 -60 -26 -60 2 0 18 14 34 30
17 17 34 30 37 30 4 0 16 12 27 26 13 16 24 22 30 16 12 -12 0 -55 -13 -47 -5
4 -9 0 -9 -8 0 -8 -11 -23 -25 -33 -29 -22 -95 -117 -95 -137 0 -7 -4 -17 -9
-22 -5 -6 -12 -23 -15 -40 -3 -16 -12 -57 -21 -90 -9 -33 -17 -66 -17 -72 -1
-7 -4 -13 -8 -13 -3 0 -6 -10 -7 -21 -2 -22 -14 -36 -67 -77 -25 -19 -80 -33
-63 -16 3 4 0 19 -8 34 -8 15 -11 30 -8 34 4 3 1 6 -5 6 -7 0 -11 3 -11 8 1 4
1 9 -1 12 -4 12 -11 69 -13 112 -1 25 -5 50 -9 54 -4 3 -4 14 0 23 4 9 7 44 7
78 0 35 2 63 5 63 3 0 6 8 6 18 1 38 15 95 29 122 9 17 15 31 14 32 -5 9 14
48 23 48 6 0 9 3 5 6 -8 8 18 70 38 90 8 9 15 19 15 24 0 16 52 85 61 82 5 -1
9 5 9 14 0 22 144 162 183 179 17 7 35 11 39 9 7 -5 12 10 9 28 0 4 6 5 14 2
8 -4 12 -11 8 -17 -3 -6 -1 -7 5 -3 6 4 8 14 5 23 -4 11 -3 14 5 9 7 -4 12 -1
12 8 0 14 12 20 33 17 4 0 7 3 7 8 0 5 11 12 25 15 14 4 25 11 25 17 0 6 4 8
9 4 5 -3 16 1 24 9 18 19 84 46 91 38 3 -3 6 0 6 6 0 7 7 12 16 12 9 0 31 9
48 19 17 11 36 20 41 21 6 2 21 7 35 13 14 6 28 10 33 9 4 -1 7 2 7 8 0 5 7 7
15 4 8 -4 15 -10 15 -15z m-104 -138 c-4 -6 -15 -11 -24 -10 -14 0 -13 2 3 9
11 5 14 9 7 9 -7 1 -10 6 -6 12 4 7 10 7 16 1 6 -6 7 -15 4 -21z m-713 -36 c4
-8 -13 -41 -38 -75 -25 -33 -45 -65 -45 -70 0 -6 -7 -13 -15 -16 -8 -4 -12
-10 -9 -15 3 -5 0 -9 -6 -9 -6 0 -8 -4 -5 -10 3 -5 3 -10 -2 -10 -4 0 -14 -15
-22 -32 -7 -18 -23 -56 -36 -83 -12 -28 -25 -68 -29 -88 -4 -20 -11 -37 -16
-37 -4 0 -6 -10 -2 -22 3 -12 1 -19 -4 -15 -12 7 -13 -8 -15 -133 -1 -104 4
-177 14 -187 4 -3 7 -21 7 -39 0 -18 5 -36 10 -39 6 -3 10 -19 10 -36 0 -16 5
-38 10 -49 6 -11 15 -29 20 -40 6 -11 10 -26 10 -34 0 -8 4 -16 8 -18 12 -5
54 -80 58 -104 2 -13 -6 -32 -21 -48 -13 -14 -22 -26 -20 -26 3 0 -4 -15 -14
-33 -10 -18 -22 -49 -27 -68 -4 -19 -9 -37 -10 -41 -1 -5 -2 -9 -4 -10 -3 -4
-12 -118 -13 -160 0 -31 -3 -37 -19 -35 -21 4 -38 19 -42 38 -2 8 -11 31 -20
52 -9 21 -14 42 -11 47 4 6 1 10 -5 10 -7 0 -10 7 -6 15 3 8 1 15 -4 15 -5 0
-9 8 -9 18 0 16 -28 137 -31 137 -3 0 -9 45 -16 115 -8 86 -8 208 1 300 4 41
8 87 8 103 1 15 4 27 7 27 3 0 6 15 6 33 1 28 6 56 19 107 2 8 4 15 5 15 4 0
23 87 24 108 0 9 4 17 8 17 4 0 8 6 8 13 0 8 8 38 18 68 11 30 21 61 23 69 5
16 73 134 92 157 7 8 20 23 30 34 9 10 17 22 18 27 0 9 78 72 89 72 4 0 10 -7
13 -15z m-433 -417 c0 -4 -4 -8 -9 -8 -6 0 -12 4 -15 8 -3 5 1 9 9 9 8 0 15
-4 15 -9z m820 -43 c-7 -8 -9 -22 -6 -31 5 -12 2 -15 -13 -11 -11 3 -18 -1
-17 -9 0 -7 -3 -13 -9 -12 -5 0 -9 4 -7 10 1 5 -2 7 -7 4 -5 -3 -7 -16 -4 -29
4 -21 4 -21 -8 -3 -11 18 -7 24 31 58 44 39 62 49 40 23z m-843 -14 c-1 -15
-4 -17 -14 -9 -15 12 -17 22 -3 13 6 -3 10 -1 10 4 0 6 2 11 4 11 3 0 4 -9 3
-19z m733 3 c0 -8 -5 -12 -10 -9 -6 4 -8 11 -5 16 9 14 15 11 15 -7z m-744
-56 c4 4 3 0 -4 -9 -6 -9 -11 -18 -9 -20 1 -2 0 -2 -3 -1 -3 2 -5 7 -5 10 0 4
-4 14 -10 22 -7 12 -6 13 7 3 8 -7 19 -9 24 -5z m-23 -116 c-7 -74 -8 -86 -14
-97 -3 -5 -5 -31 -4 -57 0 -27 -2 -48 -5 -48 -8 0 -6 -83 3 -97 5 -8 3 -13 -5
-13 -8 0 -9 -3 -3 -8 6 -4 11 -29 12 -57 2 -65 10 -133 17 -143 6 -10 -11 -38
-19 -31 -8 9 -17 50 -16 77 0 12 -3 22 -7 22 -4 0 -7 33 -7 73 0 39 -1 76 -3
81 -6 12 -8 106 -2 106 3 0 5 21 5 48 0 26 6 75 12 110 7 34 12 66 12 70 -3
16 2 21 14 16 10 -3 12 -19 10 -52z m2304 16 c0 -15 -4 -28 -10 -28 -6 0 -8 3
-4 6 3 3 2 16 -3 28 -6 16 -5 23 4 23 6 0 12 -13 13 -29z m668 -34 c16 -25 16
-25 -3 -15 -11 6 -22 7 -26 4 -3 -3 -6 0 -6 9 0 13 8 28 16 28 1 0 9 -12 19
-26z m120 -52 c-3 -10 0 -12 10 -8 8 3 15 2 15 -3 0 -4 7 -8 15 -8 18 0 20 14
3 19 -7 3 -6 7 5 11 12 4 17 1 17 -11 0 -10 3 -13 8 -7 9 13 62 14 62 0 0 -5
5 -3 10 5 7 11 10 11 10 2 0 -7 5 -10 10 -7 6 3 10 0 11 -7 0 -10 2 -10 6 0 2
6 10 9 16 5 7 -5 23 -8 36 -8 27 0 42 -24 17 -26 -16 -1 -28 -4 -43 -9 -5 -1
-12 -1 -18 0 -5 1 -26 4 -45 6 -50 6 -64 9 -77 17 -6 4 -14 3 -17 -2 -4 -5
-12 -8 -19 -6 -6 1 -27 6 -44 10 -44 10 -45 45 -2 42 12 -1 17 -6 14 -15z
m1267 -76 c-5 -6 -39 -57 -76 -113 -38 -57 -72 -103 -77 -103 -5 0 -8 -4 -6
-8 1 -5 -16 -31 -38 -57 -50 -61 -165 -178 -165 -168 0 4 -13 -5 -28 -20 -16
-15 -31 -24 -35 -20 -4 3 -7 2 -7 -4 0 -5 -16 -18 -35 -29 -19 -10 -35 -21
-35 -24 0 -3 -8 -6 -17 -7 -10 -1 -31 -7 -48 -14 -30 -12 -52 -17 -91 -23 -11
-1 -26 -6 -32 -10 -7 -4 -20 -5 -28 -2 -8 3 -12 2 -9 -3 3 -6 -22 -10 -57 -9
-72 0 -98 5 -98 19 0 6 5 7 10 4 6 -3 10 -1 10 5 0 6 5 8 10 5 6 -3 16 -3 23
2 6 4 21 8 32 8 11 0 26 4 33 8 6 5 17 5 22 2 6 -3 10 -1 10 5 0 7 7 10 15 6
8 -3 15 -2 15 2 0 4 14 9 31 10 38 3 51 10 43 23 -3 5 -10 6 -16 3 -16 -10
-138 -12 -144 -2 -3 5 -10 6 -15 3 -5 -4 -9 -2 -9 4 0 6 -6 8 -14 5 -8 -3 -17
-1 -21 5 -3 6 -14 11 -24 11 -10 0 -24 7 -31 15 -7 8 -16 12 -21 9 -5 -3 -9 0
-9 5 0 6 -7 11 -15 11 -14 0 -16 4 -15 28 0 4 11 6 23 5 81 -8 107 -10 107 -8
0 2 -24 15 -52 30 -45 24 -108 75 -92 75 3 0 -1 7 -10 15 -8 8 -18 15 -23 15
-4 0 -17 14 -28 30 -11 16 -26 30 -32 30 -7 0 -13 6 -13 13 0 8 -9 22 -20 32
-11 10 -18 20 -16 23 3 2 -1 11 -9 19 -21 20 -18 43 4 43 11 0 23 5 26 10 4 6
11 8 16 5 5 -3 24 1 43 10 19 9 40 13 47 9 8 -4 9 -3 5 4 -12 19 16 14 53 -11
19 -12 43 -27 53 -33 10 -6 28 -19 40 -30 13 -12 18 -13 13 -4 -8 13 -7 13 8
1 9 -7 17 -10 17 -5 0 4 7 -1 15 -12 8 -10 15 -16 15 -12 0 4 18 1 41 -7 23
-8 45 -13 49 -10 5 3 11 1 15 -5 4 -6 10 -8 15 -5 5 3 11 1 14 -3 6 -10 112
-8 166 2 19 4 55 17 80 28 25 12 51 20 58 19 6 -1 12 4 12 11 0 10 2 10 9 -1
7 -11 11 -10 20 6 5 11 7 24 3 28 -4 5 -1 5 6 1 7 -4 10 -12 7 -17 -10 -15 2
-10 16 8 10 11 10 14 2 9 -7 -4 -13 -2 -13 3 0 6 4 11 9 11 5 0 13 9 16 20 4
11 10 18 15 15 5 -3 7 -13 4 -23 -5 -14 -4 -14 4 -2 6 8 8 18 6 22 -3 4 2 18
10 30 9 12 16 19 16 14 0 -5 11 -1 23 7 19 12 24 13 24 2 0 -8 -5 -13 -11 -12
-6 1 -10 -4 -8 -12 2 -8 -3 -11 -13 -8 -8 4 -15 2 -15 -3 0 -6 4 -10 8 -10 4
0 8 -9 9 -20 1 -11 -3 -20 -8 -20 -6 0 -8 4 -4 9 3 5 0 13 -7 17 -7 4 -10 4
-6 -1 4 -4 -5 -19 -20 -33 l-27 -25 28 17 28 17 -6 -28 c-3 -15 -2 -21 1 -13
13 29 67 50 56 22 -4 -10 -7 -12 -10 -4 -2 7 -8 10 -12 7 -5 -3 -6 -13 -3 -22
4 -11 3 -14 -6 -9 -7 5 -10 2 -9 -6 2 -7 -4 -12 -12 -10 -12 3 -12 1 -3 -9 11
-11 41 15 93 83 8 11 25 32 38 48 12 15 22 32 22 38 0 15 23 21 38 9 7 -5 9
-14 4 -21z m95 -63 c3 -8 1 -19 -6 -26 -14 -14 -14 -30 1 -21 7 4 8 3 4 -5 -4
-6 -9 -31 -10 -54 -3 -36 -60 -203 -76 -217 -3 -3 -12 -18 -20 -35 -8 -16 -21
-34 -28 -38 -7 -5 -10 -12 -7 -18 4 -5 1 -9 -4 -9 -6 0 -11 -7 -11 -15 0 -8
-4 -15 -10 -15 -5 0 -10 -5 -10 -11 0 -6 -11 -25 -25 -43 -14 -18 -25 -37 -25
-42 0 -4 -9 -17 -19 -29 -50 -52 -70 -75 -65 -75 3 0 -11 -15 -31 -33 -20 -18
-37 -43 -38 -54 0 -12 -5 -19 -10 -16 -5 3 -22 -4 -38 -16 -15 -11 -31 -21
-35 -21 -4 0 -17 -11 -30 -25 -13 -14 -27 -25 -32 -25 -5 0 -19 -9 -32 -20
-12 -11 -26 -17 -30 -15 -4 3 -11 -2 -14 -11 -4 -9 -9 -14 -12 -11 -4 3 -23
-5 -44 -18 -21 -13 -40 -21 -44 -18 -3 3 -8 -1 -12 -10 -3 -9 -12 -13 -20 -10
-8 3 -14 0 -14 -7 0 -6 -4 -9 -9 -5 -5 3 -12 1 -16 -5 -4 -6 -12 -7 -18 -3 -7
4 -6 0 2 -10 8 -10 9 -17 3 -17 -6 0 -13 4 -16 9 -4 5 -12 8 -19 6 -38 -9 -56
-18 -52 -25 3 -5 0 -12 -6 -16 -8 -5 -9 -3 -4 6 6 10 2 11 -21 5 -16 -4 -36
-8 -44 -9 -8 -1 -24 -7 -36 -13 -11 -7 -29 -10 -40 -9 -10 2 -23 1 -29 -3 -5
-3 -18 -7 -27 -8 -10 -2 -26 -4 -35 -6 -10 -1 -24 -7 -32 -11 -10 -6 -12 -5
-7 2 9 16 -7 15 -22 0 -9 -9 -12 -9 -12 1 0 10 -4 10 -12 3 -7 -6 -31 -12 -53
-13 -22 -2 -43 -8 -47 -14 -5 -6 -8 -6 -8 2 0 9 -7 10 -26 3 -32 -13 -37 -12
-29 0 3 6 1 10 -4 10 -6 0 -11 -5 -11 -11 0 -5 -4 -8 -10 -4 -5 3 -7 13 -4 23
5 14 4 14 -4 2 -6 -8 -9 -17 -6 -21 2 -4 -23 -7 -55 -6 -38 1 -57 5 -53 12 3
5 -1 5 -9 -2 -17 -13 -59 -14 -59 0 0 4 -6 5 -12 1 -10 -5 -10 -4 -1 6 9 10
16 10 25 2 23 -18 62 11 64 47 1 17 -3 31 -8 31 -5 0 -6 -9 -3 -20 5 -15 2
-20 -10 -20 -11 0 -15 -5 -12 -14 6 -16 -19 -30 -28 -16 -4 6 -1 10 5 10 7 0
9 8 5 20 -4 14 -2 19 7 17 7 -2 10 -2 6 0 -5 3 -8 12 -9 21 0 10 -5 5 -11 -11
-5 -15 -14 -25 -19 -21 -5 3 -5 13 1 25 7 13 7 19 0 19 -5 0 -10 -6 -10 -14 0
-8 -10 -22 -22 -30 -25 -18 -41 -11 -17 7 26 20 39 51 27 68 -8 11 -9 11 -4
-3 3 -10 -5 -29 -18 -45 -12 -16 -23 -39 -24 -53 -1 -19 1 -21 8 -10 5 8 10
11 10 5 0 -5 9 0 18 13 17 22 19 23 33 6 12 -16 12 -17 -4 -11 -10 4 -16 3
-14 -1 8 -13 -18 -29 -44 -26 -65 7 -118 24 -76 24 9 0 17 5 17 11 0 11 -15 4
-43 -20 -17 -15 -18 -14 -12 12 5 17 3 27 -4 27 -6 0 -8 -7 -4 -16 5 -13 -1
-15 -32 -12 -23 2 -40 10 -43 18 -3 13 -2 13 7 0 7 -9 11 -10 11 -3 0 20 -20
25 -27 7 -6 -16 -7 -15 -20 2 -7 10 -13 13 -13 6 0 -6 -7 -9 -15 -6 -8 4 -15
10 -15 16 0 5 4 7 9 3 5 -3 12 -1 15 4 4 5 -1 8 -10 7 -8 -1 -20 -9 -25 -17
-7 -11 -9 -11 -9 -1 0 7 -4 11 -9 8 -5 -4 -11 -2 -13 3 -1 5 -21 17 -43 28
-22 11 -39 25 -37 32 1 7 -2 10 -7 7 -5 -4 -16 2 -23 12 -7 10 -21 21 -32 25
-16 6 -16 10 -5 24 8 9 9 14 3 10 -11 -6 -47 29 -52 52 -1 7 -9 20 -17 28 -8
8 -16 20 -16 26 -1 7 -3 26 -4 42 -2 17 -4 31 -5 33 -1 1 -4 16 -5 32 -1 17
-3 31 -5 33 -3 4 -13 100 -14 144 0 24 -3 43 -6 43 -3 0 -6 15 -7 33 -1 17 -3
77 -5 132 -2 55 -7 105 -11 112 -4 6 -3 14 3 18 5 3 9 21 8 39 -1 18 2 38 6
44 3 6 2 13 -4 17 -6 4 -8 11 -5 16 4 5 1 9 -6 9 -7 0 -4 7 7 15 10 8 15 14 9
13 -10 -3 -15 4 -15 23 0 17 28 -16 32 -37 2 -10 9 -25 16 -32 6 -7 12 -20 12
-28 0 -8 3 -14 8 -14 4 0 16 -16 26 -35 11 -19 23 -35 28 -35 4 0 8 -5 8 -11
0 -6 34 -44 75 -85 41 -41 74 -80 72 -87 -1 -6 4 -11 11 -9 17 3 62 -43 62
-65 0 -14 2 -15 9 -5 6 11 11 10 25 -3 9 -9 13 -22 9 -28 -3 -7 -3 -9 2 -5 4
4 21 -6 37 -22 15 -16 28 -28 28 -25 0 3 15 -10 33 -28 62 -65 97 -112 92
-125 -3 -8 0 -10 7 -6 6 4 16 0 22 -8 11 -15 17 -18 37 -18 6 0 8 -7 5 -16 -3
-8 -2 -12 3 -9 6 3 39 -8 75 -24 35 -17 75 -32 88 -33 13 -2 29 -7 36 -11 6
-5 17 -5 22 -2 6 3 10 2 10 -2 0 -5 10 -9 23 -10 37 -2 84 -10 95 -17 6 -3 13
-2 17 4 4 6 11 7 17 4 6 -4 29 -6 51 -6 38 2 39 1 23 -16 -13 -15 -13 -19 -2
-19 8 0 14 5 13 11 -1 6 3 10 10 9 7 -2 10 4 6 13 -5 14 -3 15 17 4 16 -8 20
-9 15 -1 -5 8 2 11 22 8 15 -2 34 0 41 6 8 6 12 5 12 -4 0 -10 3 -10 12 -1 9
9 15 9 27 -1 12 -9 13 -9 7 1 -5 8 1 12 21 13 15 0 37 2 48 5 11 2 29 5 40 7
11 1 26 8 33 15 7 6 20 12 28 12 9 0 35 14 59 30 24 17 48 30 53 30 5 0 15 7
22 15 7 9 15 13 17 11 3 -2 22 12 42 32 21 21 47 44 59 52 12 8 22 20 22 26 0
12 28 29 43 26 4 -1 6 2 5 6 -3 10 71 82 84 82 5 0 7 4 4 8 -3 5 3 15 12 23 9
9 33 35 52 58 19 24 42 51 50 61 15 17 26 33 62 99 11 20 26 39 34 44 7 4 11
16 9 27 -2 11 1 20 6 20 6 0 7 5 4 10 -3 6 2 10 12 11 11 0 13 3 5 6 -9 3 -7
12 8 33 11 15 21 36 23 46 6 41 17 46 48 23 17 -12 33 -28 36 -36z m-1899
-166 c15 -15 32 -27 38 -27 20 0 31 -37 27 -87 -4 -38 -9 -50 -19 -46 -8 3
-14 11 -14 19 0 8 -4 14 -8 14 -4 0 -13 12 -19 28 -14 31 -32 60 -51 80 -7 8
-11 20 -8 28 3 7 0 15 -7 18 -7 2 -2 4 10 2 13 -1 36 -14 51 -29z m-1858 -44
c0 -5 -4 -12 -8 -18 -7 -10 -14 -12 -55 -20 -9 -2 -22 -7 -28 -11 -7 -4 -7 1
1 16 8 15 18 20 31 17 10 -3 22 0 26 5 4 7 1 8 -7 3 -9 -5 -11 -4 -6 3 8 13
46 17 46 5z m125 -14 c4 -5 0 -9 -7 -9 -10 0 -10 -2 -1 -8 9 -5 5 -17 -13 -40
-21 -27 -29 -30 -45 -22 -19 10 -18 11 4 33 13 12 23 29 22 37 -3 17 31 25 40
9z m3295 -483 c0 -2 -7 -7 -16 -10 -8 -3 -12 -2 -9 4 6 10 25 14 25 6z m-476
-298 c-3 -5 -10 -6 -15 -3 -5 4 -9 1 -9 -6 0 -7 -3 -10 -6 -6 -9 9 3 24 20 24
8 0 13 -4 10 -9z"/>
<path d="M6149 3643 c-1 -5 -1 -12 0 -16 1 -4 -4 -18 -9 -30 -11 -21 -11 -21
4 -3 12 14 16 16 16 5 0 -12 2 -12 9 0 7 11 9 11 14 0 3 -9 6 -10 6 -2 1 6 -8
18 -19 26 -11 8 -17 17 -13 20 3 4 3 7 0 7 -4 0 -8 -3 -8 -7z"/>
<path d="M5754 3266 c1 -8 5 -18 8 -22 4 -3 5 1 4 10 -1 8 -5 18 -8 22 -4 3
-5 -1 -4 -10z"/>
<path d="M8596 2613 c-6 -14 -5 -15 5 -6 7 7 10 15 7 18 -3 3 -9 -2 -12 -12z"/>
<path d="M8550 2580 c0 -5 5 -10 11 -10 5 0 7 5 4 10 -3 6 -8 10 -11 10 -2 0
-4 -4 -4 -10z"/>
<path d="M9160 2460 c-9 -6 -10 -10 -3 -10 6 0 15 5 18 10 8 12 4 12 -15 0z"/>
<path d="M9079 2403 l-24 -26 30 19 c17 10 31 19 33 20 2 1 -1 5 -6 8 -5 3
-20 -6 -33 -21z"/>
<path d="M9590 2709 c0 -5 5 -7 10 -4 6 3 10 8 10 11 0 2 -4 4 -10 4 -5 0 -10
-5 -10 -11z"/>
<path d="M7553 2275 c0 -8 4 -12 9 -9 5 3 6 10 3 15 -9 13 -12 11 -12 -6z"/>
<path d="M7675 2281 c-3 -5 -2 -12 3 -15 5 -3 9 1 9 9 0 17 -3 19 -12 6z"/>
<path d="M7713 2215 c0 -8 4 -12 9 -9 5 3 6 10 3 15 -9 13 -12 11 -12 -6z"/>
<path d="M7870 2201 c0 -6 4 -13 10 -16 6 -3 7 1 4 9 -7 18 -14 21 -14 7z"/>
<path d="M7916 2133 c-6 -14 -5 -15 5 -6 7 7 10 15 7 18 -3 3 -9 -2 -12 -12z"/>
<path d="M7886 2062 c-3 -5 1 -9 9 -9 8 0 12 4 9 9 -3 4 -7 8 -9 8 -2 0 -6 -4
-9 -8z"/>
<path d="M7556 2047 c3 -10 9 -15 12 -12 3 3 0 11 -7 18 -10 9 -11 8 -5 -6z"/>
<path d="M7750 2040 c0 -5 5 -10 11 -10 5 0 7 5 4 10 -3 6 -8 10 -11 10 -2 0
-4 -4 -4 -10z"/>
<path d="M8055 2040 c-3 -5 -1 -10 4 -10 6 0 11 5 11 10 0 6 -2 10 -4 10 -3 0
-8 -4 -11 -10z"/>
<path d="M7850 2020 c0 -5 5 -10 11 -10 5 0 7 5 4 10 -3 6 -8 10 -11 10 -2 0
-4 -4 -4 -10z"/>
<path d="M7896 2018 c3 -5 10 -6 15 -3 13 9 11 12 -6 12 -8 0 -12 -4 -9 -9z"/>
<path d="M8116 2018 c3 -5 10 -6 15 -3 13 9 11 12 -6 12 -8 0 -12 -4 -9 -9z"/>
<path d="M7616 2002 c-3 -5 1 -9 9 -9 8 0 12 4 9 9 -3 4 -7 8 -9 8 -2 0 -6 -4
-9 -8z"/>
<path d="M7797 1968 c19 -21 31 -25 14 -5 -6 8 -9 16 -6 19 3 2 -2 5 -10 5
-13 0 -13 -3 2 -19z"/>
<path d="M7826 1980 c5 -8 9 -18 9 -22 0 -3 3 -9 7 -13 3 -4 5 0 4 9 -1 9 -8
22 -16 29 -10 10 -11 9 -4 -3z"/>
<path d="M7985 1979 c-3 -4 2 -6 10 -5 21 3 28 13 10 13 -9 0 -18 -4 -20 -8z"/>
<path d="M8033 1983 c4 -3 1 -13 -6 -22 -11 -14 -10 -14 5 -2 16 12 16 31 1
31 -4 0 -3 -3 0 -7z"/>
<path d="M7933 1965 c0 -8 3 -13 5 -10 3 3 12 -1 21 -7 10 -8 9 -4 -3 10 -23
26 -23 26 -23 7z"/>
<path d="M7530 1966 c0 -2 7 -7 16 -10 8 -3 12 -2 9 4 -6 10 -25 14 -25 6z"/>
<path d="M8059 1953 c-13 -16 -12 -17 4 -4 16 13 21 21 13 21 -2 0 -10 -8 -17
-17z"/>
<path d="M7719 1933 c-13 -16 -12 -17 4 -4 9 7 17 15 17 17 0 8 -8 3 -21 -13z"/>
<path d="M7991 1933 c7 -12 15 -20 18 -17 3 2 -3 12 -13 22 -17 16 -18 16 -5
-5z"/>
<path d="M8080 1935 c-7 -8 -16 -13 -19 -10 -4 2 -8 -2 -8 -10 0 -10 4 -12 12
-5 7 5 15 8 18 5 4 -3 5 -2 2 2 -3 3 0 12 6 20 6 7 9 13 6 13 -2 0 -10 -7 -17
-15z"/>
<path d="M8119 1943 c-1 -5 -1 -12 0 -17 1 -4 -4 -16 -11 -25 -12 -14 -11 -14
4 -3 9 7 16 22 15 33 -1 19 -6 26 -8 12z"/>
<path d="M8575 1940 c3 -5 8 -10 11 -10 2 0 4 5 4 10 0 6 -5 10 -11 10 -5 0
-7 -4 -4 -10z"/>
<path d="M8610 1939 c0 -5 5 -7 10 -4 6 3 10 8 10 11 0 2 -4 4 -10 4 -5 0 -10
-5 -10 -11z"/>
<path d="M7549 1923 c-13 -16 -12 -17 4 -4 9 7 17 15 17 17 0 8 -8 3 -21 -13z"/>
<path d="M7813 1925 c0 -8 4 -12 9 -9 5 3 6 10 3 15 -9 13 -12 11 -12 -6z"/>
<path d="M8022 1920 c0 -14 2 -19 5 -12 2 6 2 18 0 25 -3 6 -5 1 -5 -13z"/>
<path d="M7739 1913 c-13 -16 -12 -17 4 -4 9 7 17 15 17 17 0 8 -8 3 -21 -13z"/>
<path d="M7970 1916 c14 -18 13 -19 -8 -14 -12 4 -20 2 -16 -3 7 -12 31 -12
38 0 3 5 -2 15 -12 22 -16 13 -16 13 -2 -5z"/>
<path d="M8234 1916 c1 -8 5 -18 8 -22 4 -3 5 1 4 10 -1 8 -5 18 -8 22 -4 3
-5 -1 -4 -10z"/>
<path d="M8390 1919 c0 -5 5 -7 10 -4 6 3 10 8 10 11 0 2 -4 4 -10 4 -5 0 -10
-5 -10 -11z"/>
<path d="M8456 1922 c-3 -5 1 -9 9 -9 8 0 12 4 9 9 -3 4 -7 8 -9 8 -2 0 -6 -4
-9 -8z"/>
<path d="M7869 1903 c-13 -16 -12 -17 4 -4 16 13 21 21 13 21 -2 0 -10 -8 -17
-17z"/>
<path d="M8190 1916 c0 -2 8 -10 18 -17 15 -13 16 -12 3 4 -13 16 -21 21 -21
13z"/>
<path d="M7575 1900 c3 -5 8 -10 11 -10 2 0 4 5 4 10 0 6 -5 10 -11 10 -5 0
-7 -4 -4 -10z"/>
<path d="M8296 1901 c-3 -5 2 -15 12 -22 15 -12 16 -12 5 2 -7 9 -10 19 -6 22
3 4 4 7 0 7 -3 0 -8 -4 -11 -9z"/>
<path d="M8355 1901 c-3 -5 -2 -12 3 -15 5 -3 9 1 9 9 0 17 -3 19 -12 6z"/>
<path d="M8469 1883 c-13 -15 -17 -22 -8 -15 9 6 19 10 22 7 4 -3 5 -2 2 2 -3
3 0 12 6 20 21 25 3 13 -22 -14z"/>
<path d="M8513 1903 c4 -3 1 -13 -6 -22 -11 -14 -10 -14 5 -2 16 12 16 31 1
31 -4 0 -3 -3 0 -7z"/>
<path d="M8635 1899 c-4 -6 -5 -12 -2 -15 2 -3 7 2 10 11 7 17 1 20 -8 4z"/>
<path d="M7810 1896 c0 -2 8 -10 18 -17 15 -13 16 -12 3 4 -13 16 -21 21 -21
13z"/>
<path d="M7886 1885 c-18 -14 -18 -14 1 -12 11 0 20 7 20 14 0 7 -1 13 -1 13
-1 0 -9 -7 -20 -15z"/>
<path d="M8075 1891 c-3 -5 -2 -12 3 -15 5 -3 9 1 9 9 0 17 -3 19 -12 6z"/>
<path d="M8118 1877 c-21 -17 -25 -26 -17 -37 9 -13 10 -12 5 2 -3 11 2 19 14
23 10 3 21 12 24 20 7 19 6 19 -26 -8z"/>
<path d="M8173 1885 c0 -8 3 -13 5 -10 3 3 12 -1 21 -7 10 -8 9 -4 -3 10 -23
26 -23 26 -23 7z"/>
<path d="M8384 1878 c-12 -14 -13 -18 -3 -10 9 6 18 10 21 7 2 -3 5 2 5 10 0
19 0 19 -23 -7z"/>
<path d="M7631 1887 c2 -2 11 -8 20 -15 12 -9 16 -9 16 1 0 7 -9 14 -20 14
-11 1 -18 1 -16 0z"/>
<path d="M7750 1881 c0 -6 4 -12 8 -15 5 -3 9 1 9 9 0 8 -4 15 -9 15 -4 0 -8
-4 -8 -9z"/>
<path d="M7997 1884 c7 -3 15 -5 19 -4 4 1 11 -4 16 -12 8 -11 9 -10 6 1 -2 8
-15 15 -29 17 -13 1 -18 0 -12 -2z"/>
<path d="M8273 1873 c0 -11 7 -20 14 -20 10 0 10 4 1 16 -7 9 -13 18 -15 20
-1 2 -1 -5 0 -16z"/>
<path d="M7984 1866 c11 -9 24 -16 30 -16 12 0 7 5 -24 19 -24 11 -24 11 -6
-3z"/>
<path d="M7639 1847 c29 -32 28 -31 28 -12 0 8 -3 13 -5 10 -3 -3 -15 3 -26
12 -15 13 -14 10 3 -10z"/>
<path d="M7810 1864 c0 -2 9 -8 20 -14 11 -6 20 -7 20 -2 0 6 -9 12 -20 15
-11 3 -20 3 -20 1z"/>
<path d="M7930 1855 c-11 -13 -15 -13 -21 -3 -7 10 -9 9 -9 -4 0 -10 3 -18 8
-18 12 1 46 30 40 35 -3 3 -11 -2 -18 -10z"/>
<path d="M8042 1854 c-11 -12 -11 -17 2 -29 19 -20 32 -19 16 0 -10 12 -10 18
0 30 16 19 -1 19 -18 -1z"/>
<path d="M8224 1862 c4 -3 14 -7 22 -8 9 -1 13 0 10 4 -4 3 -14 7 -22 8 -9 1
-13 0 -10 -4z"/>
<path d="M8320 1860 c-9 -6 -10 -10 -3 -10 6 0 15 5 18 10 8 12 4 12 -15 0z"/>
<path d="M7734 1840 c0 -13 4 -16 10 -10 7 7 7 13 0 20 -6 6 -10 3 -10 -10z"/>
<path d="M8173 1845 c0 -8 3 -13 5 -10 3 3 15 -3 26 -12 15 -14 18 -14 8 -2
-6 9 -8 20 -4 25 4 5 3 6 -2 2 -5 -4 -14 -3 -21 2 -8 7 -12 5 -12 -5z"/>
<path d="M8415 1849 c-4 -6 -5 -12 -2 -15 2 -3 7 2 10 11 7 17 1 20 -8 4z"/>
<path d="M8495 1850 c-4 -6 -12 -7 -18 -4 -7 4 -9 4 -5 -1 4 -4 3 -13 -2 -20
-7 -8 -5 -12 5 -12 8 0 13 3 10 5 -3 3 2 14 12 24 9 10 13 18 10 18 -3 0 -9
-5 -12 -10z"/>
<path d="M7770 1840 c0 -5 5 -10 10 -10 6 0 10 5 10 10 0 6 -4 10 -10 10 -5 0
-10 -4 -10 -10z"/>
<path d="M7875 1830 c20 -22 19 -37 -2 -49 -10 -6 -13 -10 -8 -10 6 0 18 5 27
13 15 11 16 15 3 33 -8 11 -12 22 -10 25 3 3 -2 5 -10 5 -13 0 -13 -2 0 -17z"/>
<path d="M7983 1840 c2 -8 12 -16 23 -17 13 -2 15 -1 4 4 -8 3 -19 11 -23 17
-6 7 -7 6 -4 -4z"/>
<path d="M8070 1841 c0 -5 5 -13 10 -16 6 -3 10 -2 10 4 0 5 -4 13 -10 16 -5
3 -10 2 -10 -4z"/>
<path d="M8120 1840 c0 -5 5 -10 10 -10 6 0 10 5 10 10 0 6 -4 10 -10 10 -5 0
-10 -4 -10 -10z"/>
<path d="M8339 1833 c-13 -16 -12 -17 4 -4 16 13 21 21 13 21 -2 0 -10 -8 -17
-17z"/>
<path d="M8370 1841 c0 -6 4 -13 10 -16 6 -3 7 1 4 9 -7 18 -14 21 -14 7z"/>
<path d="M8673 1833 c0 -6 5 -9 11 -5 6 4 14 7 18 7 19 0 14 11 -6 11 -12 0
-23 -6 -23 -13z"/>
<path d="M7934 1826 c-3 -9 -11 -13 -17 -9 -6 4 -7 1 -2 -6 6 -10 11 -9 23 3
9 8 13 19 9 22 -4 4 -9 -1 -13 -10z"/>
<path d="M8233 1825 c0 -8 10 -23 21 -32 21 -18 21 -18 4 2 -9 11 -17 24 -16
28 0 5 -2 11 -4 13 -3 2 -5 -3 -5 -11z"/>
<path d="M7850 1820 c0 -5 5 -10 11 -10 5 0 7 -5 3 -12 -4 -7 -3 -8 5 -4 9 6
9 11 0 22 -14 17 -19 18 -19 4z"/>
<path d="M7957 1817 c-3 -8 -2 -20 3 -26 5 -9 8 -4 8 13 0 29 -3 32 -11 13z"/>
<path d="M8151 1825 c-1 -6 4 -16 11 -23 8 -8 8 -12 1 -12 -6 0 -16 7 -23 15
-7 8 -20 15 -29 14 -11 0 -10 -3 6 -9 12 -5 26 -17 32 -27 9 -15 12 -16 20 -3
5 8 8 17 5 21 -2 4 -1 9 3 12 5 2 3 2 -4 1 -6 -2 -14 2 -17 9 -2 7 -5 7 -5 2z"/>
<path d="M8278 1805 c9 -11 17 -21 18 -23 1 -2 4 4 8 13 4 11 2 14 -6 9 -7 -5
-9 -2 -6 7 4 10 -1 15 -13 15 -17 0 -17 -1 -1 -21z"/>
<path d="M8526 1818 c3 -5 10 -6 15 -3 13 9 11 12 -6 12 -8 0 -12 -4 -9 -9z"/>
<path d="M7627 1809 c7 -7 15 -10 18 -7 3 3 -2 9 -12 12 -14 6 -15 5 -6 -5z"/>
<path d="M7755 1810 c-3 -5 -1 -10 4 -10 6 0 11 5 11 10 0 6 -2 10 -4 10 -3 0
-8 -4 -11 -10z"/>
<path d="M7795 1801 c3 -18 44 -81 52 -81 1 0 -1 7 -4 17 -4 10 -2 14 5 9 6
-3 14 -1 18 5 4 8 3 9 -4 5 -12 -7 -16 5 -13 33 2 7 -2 10 -7 7 -6 -3 -12 -3
-15 1 -4 8 0 -7 10 -37 2 -8 -4 -5 -16 8 -11 13 -17 30 -14 37 3 8 0 15 -5 15
-6 0 -9 -9 -7 -19z"/>
<path d="M7713 1800 c-13 -5 -23 -11 -23 -14 0 -7 40 6 46 15 6 10 6 10 -23
-1z"/>
<path d="M7980 1802 c0 -4 9 -8 20 -9 11 -1 20 2 20 5 0 4 -9 8 -20 9 -11 1
-20 -2 -20 -5z"/>
<path d="M8068 1798 c-10 -7 -10 -8 2 -7 8 1 23 -1 33 -6 27 -11 29 -1 2 11
-14 7 -28 8 -37 2z"/>
<path d="M8319 1793 c-13 -16 -12 -17 4 -4 16 13 21 21 13 21 -2 0 -10 -8 -17
-17z"/>
<path d="M8351 1807 c2 -2 11 -8 20 -15 12 -9 16 -9 16 1 0 7 -9 14 -20 14
-11 1 -18 1 -16 0z"/>
<path d="M7770 1783 c0 -4 5 -15 10 -23 8 -13 10 -13 10 2 0 9 -4 20 -10 23
-5 3 -10 3 -10 -2z"/>
<path d="M7939 1777 c6 -8 8 -17 4 -20 -10 -11 -45 -8 -38 3 4 6 11 7 17 4 7
-4 8 -2 4 4 -7 11 -36 6 -36 -7 1 -24 17 -29 47 -14 28 13 30 17 18 29 -17 18
-31 18 -16 1z"/>
<path d="M8187 1776 c-3 -8 5 -29 19 -47 13 -18 24 -29 24 -25 0 4 -9 21 -20
36 -19 27 -20 29 -3 39 16 9 16 10 2 11 -9 0 -19 -6 -22 -14z"/>
<path d="M8351 1773 c7 -12 15 -20 18 -17 3 2 -3 12 -13 22 -17 16 -18 16 -5
-5z"/>
<path d="M8419 1788 c-7 -26 -5 -36 10 -33 9 1 21 -1 27 -6 6 -5 11 -4 11 5 0
7 -10 13 -21 12 -12 -1 -20 4 -18 12 2 10 -6 19 -9 10z"/>
<path d="M8534 1776 c1 -8 5 -18 8 -22 4 -3 5 1 4 10 -1 8 -5 18 -8 22 -4 3
-5 -1 -4 -10z"/>
<path d="M7988 1773 c7 -3 16 -2 19 1 4 3 -2 6 -13 5 -11 0 -14 -3 -6 -6z"/>
<path d="M8220 1751 c15 -29 25 -32 46 -15 18 14 18 14 -4 4 -20 -10 -24 -9
-29 9 -3 12 -9 21 -15 21 -5 0 -4 -9 2 -19z"/>
<path d="M8314 1762 c4 -3 14 -7 22 -8 9 -1 13 0 10 4 -4 3 -14 7 -22 8 -9 1
-13 0 -10 -4z"/>
<path d="M7964 1746 c-10 -8 -17 -16 -14 -19 3 -2 14 4 24 14 23 22 18 25 -10
5z"/>
<path d="M8153 1738 c0 -16 4 -28 9 -28 5 0 6 5 2 12 -5 7 -2 9 9 5 11 -4 14
-2 10 8 -3 8 -9 13 -13 10 -5 -3 -10 1 -13 7 -2 7 -4 1 -4 -14z"/>
<path d="M8335 1730 c-3 -6 -17 -8 -29 -6 -13 2 -28 1 -35 -3 -7 -4 8 -8 32
-7 29 0 44 5 44 13 0 16 -4 16 -12 3z"/>
<path d="M7962 1714 c-7 -8 -8 -14 -3 -14 10 0 25 19 20 25 -2 1 -10 -3 -17
-11z"/>
<path d="M8175 1701 c-3 -5 0 -13 6 -17 8 -5 9 -3 4 6 -6 10 -4 12 8 7 10 -3
17 -2 17 3 0 13 -27 13 -35 1z"/>
<path d="M8140 18426 c0 -2 8 -10 18 -17 15 -13 16 -12 3 4 -13 16 -21 21 -21
13z"/>
<path d="M5894 17757 c-8 -21 18 -72 36 -72 11 0 15 11 15 38 0 20 -3 37 -6
37 -4 0 -14 3 -23 6 -9 4 -18 0 -22 -9z"/>
<path d="M14235 17130 c-8 -13 -1 -24 14 -19 6 3 7 10 2 18 -6 10 -10 10 -16
1z"/>
<path d="M2176 16328 c3 -5 10 -6 15 -3 13 9 11 12 -6 12 -8 0 -12 -4 -9 -9z"/>
<path d="M2335 15281 c-3 -5 -2 -12 3 -15 5 -3 9 1 9 9 0 17 -3 19 -12 6z"/>
<path d="M2470 14986 c0 -2 7 -7 16 -10 8 -3 12 -2 9 4 -6 10 -25 14 -25 6z"/>
<path d="M17746 14578 c3 -5 10 -6 15 -3 13 9 11 12 -6 12 -8 0 -12 -4 -9 -9z"/>
<path d="M18933 14565 c0 -8 4 -12 9 -9 5 3 6 10 3 15 -9 13 -12 11 -12 -6z"/>
<path d="M18305 14440 c-3 -6 1 -7 9 -4 18 7 21 14 7 14 -6 0 -13 -4 -16 -10z"/>
<path d="M18339 14393 c-13 -16 -12 -17 4 -4 9 7 17 15 17 17 0 8 -8 3 -21
-13z"/>
<path d="M17753 14355 c0 -8 4 -12 9 -9 4 3 8 9 8 15 0 5 -4 9 -8 9 -5 0 -9
-7 -9 -15z"/>
<path d="M2090 14241 c0 -6 4 -13 10 -16 6 -3 7 1 4 9 -7 18 -14 21 -14 7z"/>
<path d="M17390 12805 c-69 -39 -96 -64 -116 -104 -10 -23 -23 -41 -29 -41
-18 -1 77 -40 96 -40 11 0 46 15 79 32 63 35 75 56 67 120 -8 58 -37 68 -97
33z"/>
<path d="M1270 10842 c0 -6 5 -14 10 -17 7 -4 7 -12 0 -25 -14 -26 10 -32 38
-10 26 21 28 33 8 49 -10 9 -16 9 -21 1 -5 -8 -11 -8 -21 1 -9 7 -14 8 -14 1z"/>
<path d="M18080 10566 c0 -2 8 -10 18 -17 15 -13 16 -12 3 4 -13 16 -21 21
-21 13z"/>
<path d="M18270 10562 c0 -5 7 -9 15 -9 8 0 12 4 9 9 -3 4 -9 8 -15 8 -5 0 -9
-4 -9 -8z"/>
<path d="M1899 10258 c-5 -18 -6 -38 -1 -34 7 8 12 36 6 36 -2 0 -4 -1 -5 -2z"/>
<path d="M1419 10233 c-13 -16 -12 -17 4 -4 16 13 21 21 13 21 -2 0 -10 -8
-17 -17z"/>
<path d="M19119 10218 c-5 -18 -6 -38 -1 -34 7 8 12 36 6 36 -2 0 -4 -1 -5 -2z"/>
<path d="M393 10125 c0 -8 4 -12 9 -9 5 3 6 10 3 15 -9 13 -12 11 -12 -6z"/>
<path d="M18556 10022 c-3 -5 1 -9 9 -9 8 0 12 4 9 9 -3 4 -7 8 -9 8 -2 0 -6
-4 -9 -8z"/>
<path d="M1400 9960 c-9 -6 -10 -10 -3 -10 6 0 15 5 18 10 8 12 4 12 -15 0z"/>
<path d="M17974 9926 c1 -8 5 -18 8 -22 4 -3 5 1 4 10 -1 8 -5 18 -8 22 -4 3
-5 -1 -4 -10z"/>
<path d="M18060 9786 c0 -2 8 -10 18 -17 15 -13 16 -12 3 4 -13 16 -21 21 -21
13z"/>
<path d="M630 9776 c0 -2 8 -10 18 -17 15 -13 16 -12 3 4 -13 16 -21 21 -21
13z"/>
<path d="M18690 9456 c0 -2 8 -10 18 -17 15 -13 16 -12 3 4 -13 16 -21 21 -21
13z"/>
<path d="M18395 9440 c3 -5 8 -10 11 -10 2 0 4 5 4 10 0 6 -5 10 -11 10 -5 0
-7 -4 -4 -10z"/>
<path d="M17091 7176 c-14 -17 -7 -36 14 -36 9 0 12 8 10 21 -6 29 -10 32 -24
15z"/>
<path d="M16849 6663 c-22 -6 -40 -43 -36 -73 4 -23 9 -26 36 -21 18 2 38 57
30 79 -5 12 -10 21 -11 21 -2 -1 -10 -3 -19 -6z"/>
<path d="M2870 5996 c0 -2 8 -10 18 -17 15 -13 16 -12 3 4 -13 16 -21 21 -21
13z"/>
<path d="M2239 5978 c-5 -18 -6 -38 -1 -34 7 8 12 36 6 36 -2 0 -4 -1 -5 -2z"/>
<path d="M16524 5874 c3 -9 6 -17 6 -20 0 -2 6 -1 14 2 18 7 9 34 -11 34 -10
0 -13 -6 -9 -16z"/>
<path d="M2344 5842 c4 -3 14 -7 22 -8 9 -1 13 0 10 4 -4 3 -14 7 -22 8 -9 1
-13 0 -10 -4z"/>
<path d="M18706 5578 c3 -5 10 -6 15 -3 13 9 11 12 -6 12 -8 0 -12 -4 -9 -9z"/>
<path d="M17429 5543 c-13 -16 -12 -17 4 -4 9 7 17 15 17 17 0 8 -8 3 -21 -13z"/>
<path d="M18000 5500 c-9 -6 -10 -10 -3 -10 6 0 15 5 18 10 8 12 4 12 -15 0z"/>
<path d="M18875 5440 c3 -5 8 -10 11 -10 2 0 4 5 4 10 0 6 -5 10 -11 10 -5 0
-7 -4 -4 -10z"/>
<path d="M2184 5282 c4 -3 14 -7 22 -8 9 -1 13 0 10 4 -4 3 -14 7 -22 8 -9 1
-13 0 -10 -4z"/>
<path d="M3050 5281 c0 -6 4 -13 10 -16 6 -3 7 1 4 9 -7 18 -14 21 -14 7z"/>
<path d="M15675 5211 c-3 -5 -2 -12 3 -15 5 -3 9 1 9 9 0 17 -3 19 -12 6z"/>
<path d="M15555 5159 c-11 -17 1 -21 15 -4 8 9 8 15 2 15 -6 0 -14 -5 -17 -11z"/>
<path d="M15520 5136 c0 -2 7 -9 15 -16 9 -7 15 -8 15 -2 0 5 -7 12 -15 16 -8
3 -15 4 -15 2z"/>
<path d="M2385 4980 c-3 -6 1 -7 9 -4 18 7 21 14 7 14 -6 0 -13 -4 -16 -10z"/>
<path d="M2867 4939 c7 -7 15 -10 18 -7 3 3 -2 9 -12 12 -14 6 -15 5 -6 -5z"/>
<path d="M3903 4638 c-27 -13 -28 -21 -9 -37 11 -9 18 -8 30 4 16 17 22 46 9
44 -5 0 -18 -5 -30 -11z"/>
<path d="M4113 2603 c-67 -65 -133 -151 -133 -171 0 -6 -5 -12 -10 -14 -6 -2
-13 -16 -16 -32 -3 -16 -8 -34 -11 -40 -13 -19 -30 -147 -21 -152 4 -3 6 -9 3
-14 -3 -5 0 -32 7 -62 6 -29 11 -56 10 -60 -1 -5 3 -8 9 -8 6 0 9 -6 7 -12 -3
-7 8 -34 24 -61 15 -26 28 -52 28 -57 0 -6 5 -10 10 -10 6 0 10 -7 10 -15 0
-8 5 -15 10 -15 6 0 10 -5 10 -11 0 -13 84 -114 124 -149 17 -14 39 -34 50
-46 12 -12 44 -36 71 -54 28 -19 52 -37 55 -40 3 -4 20 -13 38 -21 17 -8 32
-17 32 -21 0 -5 8 -8 18 -8 9 0 26 -7 37 -16 11 -8 49 -24 85 -35 64 -20 76
-23 135 -35 42 -9 215 -12 215 -4 0 3 10 6 23 6 33 0 97 15 97 23 0 4 9 7 20
8 53 4 170 91 170 126 0 10 4 17 8 17 4 0 8 9 9 20 2 24 3 24 -50 1 -46 -21
-122 -45 -177 -56 -48 -11 -180 -13 -186 -3 -3 4 -11 5 -19 2 -8 -3 -20 -2
-26 2 -7 4 -24 8 -38 9 -64 6 -159 37 -279 91 -29 13 -57 24 -62 24 -6 0 -10
5 -10 10 0 6 -5 10 -11 10 -6 0 -31 14 -56 30 -24 17 -46 30 -49 30 -12 0
-204 186 -204 198 0 5 -7 15 -15 22 -21 17 -75 130 -83 172 -7 40 -6 122 2
163 14 69 78 177 146 247 38 40 68 74 66 75 -2 2 -35 -27 -73 -64z"/>
<path d="M10161 2475 c-27 -10 -30 -13 -16 -19 16 -6 65 16 65 29 0 7 -9 5
-49 -10z"/>
<path d="M18975 1681 c-3 -5 -2 -12 3 -15 5 -3 9 1 9 9 0 17 -3 19 -12 6z"/>
<path d="M18549 1543 c-13 -16 -12 -17 4 -4 16 13 21 21 13 21 -2 0 -10 -8
-17 -17z"/>
<path d="M19019 1273 c-13 -16 -12 -17 4 -4 9 7 17 15 17 17 0 8 -8 3 -21 -13z"/>
<path d="M9784 1202 c4 -3 14 -7 22 -8 9 -1 13 0 10 4 -4 3 -14 7 -22 8 -9 1
-13 0 -10 -4z"/>
<path d="M11340 1186 c0 -2 8 -10 18 -17 15 -13 16 -12 3 4 -13 16 -21 21 -21
13z"/>
<path d="M730 1119 c0 -5 5 -7 10 -4 6 3 10 8 10 11 0 2 -4 4 -10 4 -5 0 -10
-5 -10 -11z"/>
<path d="M2540 1066 c0 -2 8 -10 18 -17 15 -13 16 -12 3 4 -13 16 -21 21 -21
13z"/>
<path d="M9746 1062 c-3 -5 1 -9 9 -9 8 0 12 4 9 9 -3 4 -7 8 -9 8 -2 0 -6 -4
-9 -8z"/>
<path d="M5400 1050 c-12 -7 -12 -12 0 -34 7 -14 17 -26 20 -26 16 0 29 27 23
48 -6 23 -19 27 -43 12z"/>
<path d="M1905 1020 c-3 -6 1 -7 9 -4 18 7 21 14 7 14 -6 0 -13 -4 -16 -10z"/>
<path d="M310 1001 c0 -6 4 -12 8 -15 5 -3 9 1 9 9 0 8 -4 15 -9 15 -4 0 -8
-4 -8 -9z"/>
<path d="M1450 961 c0 -6 4 -13 10 -16 6 -3 7 1 4 9 -7 18 -14 21 -14 7z"/>
<path d="M18073 915 c0 -8 4 -12 9 -9 4 3 8 9 8 15 0 5 -4 9 -8 9 -5 0 -9 -7
-9 -15z"/>
<path d="M1425 820 c-3 -6 1 -7 9 -4 18 7 21 14 7 14 -6 0 -13 -4 -16 -10z"/>
<path d="M12569 803 c-13 -16 -12 -17 4 -4 16 13 21 21 13 21 -2 0 -10 -8 -17
-17z"/>
<path d="M8139 793 c-13 -16 -12 -17 4 -4 16 13 21 21 13 21 -2 0 -10 -8 -17
-17z"/>
<path d="M9439 778 c-5 -18 -6 -38 -1 -34 7 8 12 36 6 36 -2 0 -4 -1 -5 -2z"/>
<path d="M10755 721 c-3 -5 -2 -12 3 -15 5 -3 9 1 9 9 0 17 -3 19 -12 6z"/>
<path d="M626 698 c3 -5 10 -6 15 -3 13 9 11 12 -6 12 -8 0 -12 -4 -9 -9z"/>
<path d="M7196 698 c3 -5 10 -6 15 -3 13 9 11 12 -6 12 -8 0 -12 -4 -9 -9z"/>
<path d="M790 681 c0 -6 4 -13 10 -16 6 -3 7 1 4 9 -7 18 -14 21 -14 7z"/>
<path d="M915 681 c-3 -5 -2 -12 3 -15 5 -3 9 1 9 9 0 17 -3 19 -12 6z"/>
<path d="M9586 662 c-3 -5 1 -9 9 -9 8 0 12 4 9 9 -3 4 -7 8 -9 8 -2 0 -6 -4
-9 -8z"/>
<path d="M734 640 c0 -13 4 -16 10 -10 7 7 7 13 0 20 -6 6 -10 3 -10 -10z"/>
<path d="M25 639 c-3 -4 2 -6 10 -5 21 3 28 13 10 13 -9 0 -18 -4 -20 -8z"/>
<path d="M2066 642 c-2 -4 4 -8 14 -8 10 0 16 4 14 8 -3 4 -9 8 -14 8 -5 0
-11 -4 -14 -8z"/>
<path d="M7466 642 c-3 -5 1 -9 9 -9 8 0 15 4 15 9 0 4 -4 8 -9 8 -6 0 -12 -4
-15 -8z"/>
<path d="M9596 582 c-3 -5 1 -9 9 -9 8 0 12 4 9 9 -3 4 -7 8 -9 8 -2 0 -6 -4
-9 -8z"/>
<path d="M730 576 c0 -2 8 -10 18 -17 15 -13 16 -12 3 4 -13 16 -21 21 -21 13z"/>
<path d="M1876 558 c3 -5 10 -6 15 -3 13 9 11 12 -6 12 -8 0 -12 -4 -9 -9z"/>
<path d="M18653 485 c0 -8 4 -12 9 -9 5 3 6 10 3 15 -9 13 -12 11 -12 -6z"/>
<path d="M13756 473 c-6 -14 -5 -15 5 -6 7 7 10 15 7 18 -3 3 -9 -2 -12 -12z"/>
<path d="M8316 322 c-3 -5 1 -9 9 -9 8 0 12 4 9 9 -3 4 -7 8 -9 8 -2 0 -6 -4
-9 -8z"/>
<path d="M19020 226 c0 -2 8 -10 18 -17 15 -13 16 -12 3 4 -13 16 -21 21 -21
13z"/>
<path d="M18387 179 c7 -7 15 -10 18 -7 3 3 -2 9 -12 12 -14 6 -15 5 -6 -5z"/>
<path d="M8356 153 c-6 -14 -5 -15 5 -6 7 7 10 15 7 18 -3 3 -9 -2 -12 -12z"/>
<path d="M18547 99 c7 -7 15 -10 18 -7 3 3 -2 9 -12 12 -14 6 -15 5 -6 -5z"/>
</g>
</svg>
